<?xml version="1.0" encoding="UTF-8"?>
<svg width="484px" height="429px" viewBox="0 0 484 429" version="1.1" xmlns="http://www.w3.org/2000/svg" xmlns:xlink="http://www.w3.org/1999/xlink">
    <!-- Generator: Sketch 57.1 (83088) - https://sketch.com -->
    <title>click_here</title>
    <desc>Created with Sketch.</desc>
    <defs>
        <linearGradient x1="69.2921811%" y1="42.5518513%" x2="18.5925926%" y2="61.5121152%" id="linearGradient-1">
            <stop stop-color="#000000" offset="1%"></stop>
            <stop stop-color="#000000" stop-opacity="0.11" offset="23%"></stop>
            <stop stop-color="#000000" stop-opacity="0.08" offset="32%"></stop>
            <stop stop-color="#000000" stop-opacity="0" offset="100%"></stop>
        </linearGradient>
        <linearGradient x1="49.0338764%" y1="48.8246258%" x2="32.8266579%" y2="84.2026788%" id="linearGradient-2">
            <stop stop-color="#000000" offset="1%"></stop>
            <stop stop-color="#000000" stop-opacity="0.11" offset="54%"></stop>
            <stop stop-color="#000000" stop-opacity="0.08" offset="60%"></stop>
            <stop stop-color="#000000" stop-opacity="0" offset="100%"></stop>
        </linearGradient>
        <linearGradient x1="56.733582%" y1="45.4846633%" x2="42.3430292%" y2="54.6103382%" id="linearGradient-3">
            <stop stop-color="#000000" offset="1%"></stop>
            <stop stop-color="#000000" stop-opacity="0.69" offset="13%"></stop>
            <stop stop-color="#000000" stop-opacity="0" offset="100%"></stop>
        </linearGradient>
        <linearGradient x1="67.0030209%" y1="-9.18626924%" x2="47.7552722%" y2="58.8831748%" id="linearGradient-4">
            <stop stop-color="#000000" offset="1%"></stop>
            <stop stop-color="#000000" stop-opacity="0.69" offset="13%"></stop>
            <stop stop-color="#000000" stop-opacity="0" offset="100%"></stop>
        </linearGradient>
        <linearGradient x1="51.9782628%" y1="50.25406%" x2="45.5035823%" y2="49.3696995%" id="linearGradient-5">
            <stop stop-color="#000000" offset="1%"></stop>
            <stop stop-color="#000000" stop-opacity="0.11" offset="54%"></stop>
            <stop stop-color="#000000" stop-opacity="0.08" offset="60%"></stop>
            <stop stop-color="#000000" stop-opacity="0" offset="100%"></stop>
        </linearGradient>
        <linearGradient x1="26.2965304%" y1="47.7627919%" x2="92.1420668%" y2="57.6857755%" id="linearGradient-6">
            <stop stop-color="#000000" offset="1%"></stop>
            <stop stop-color="#000000" stop-opacity="0.11" offset="54%"></stop>
            <stop stop-color="#000000" stop-opacity="0.08" offset="60%"></stop>
            <stop stop-color="#000000" stop-opacity="0" offset="100%"></stop>
        </linearGradient>
        <linearGradient x1="52.6611533%" y1="50.185969%" x2="47.8880796%" y2="49.5062203%" id="linearGradient-7">
            <stop stop-color="#000000" offset="1%"></stop>
            <stop stop-color="#000000" stop-opacity="0.69" offset="13%"></stop>
            <stop stop-color="#000000" stop-opacity="0" offset="100%"></stop>
        </linearGradient>
        <linearGradient x1="39.6778078%" y1="-29.0762563%" x2="52.650051%" y2="52.7597167%" id="linearGradient-8">
            <stop stop-color="#000000" offset="1%"></stop>
            <stop stop-color="#000000" stop-opacity="0.69" offset="13%"></stop>
            <stop stop-color="#000000" stop-opacity="0" offset="100%"></stop>
        </linearGradient>
        <linearGradient x1="73.5934606%" y1="104.015142%" x2="24.2993819%" y2="-2.00681735%" id="linearGradient-9">
            <stop stop-color="#000000" offset="1%"></stop>
            <stop stop-color="#000000" stop-opacity="0.69" offset="13%"></stop>
            <stop stop-color="#000000" stop-opacity="0" offset="100%"></stop>
        </linearGradient>
        <linearGradient x1="-29.4288231%" y1="-49.4401238%" x2="81.8737952%" y2="99.9218773%" id="linearGradient-10">
            <stop stop-color="#FFFFFF" stop-opacity="0" offset="2%"></stop>
            <stop stop-color="#FFFFFF" stop-opacity="0.05" offset="2%"></stop>
            <stop stop-color="#FFFFFF" stop-opacity="0.16" offset="3%"></stop>
            <stop stop-color="#FFFFFF" stop-opacity="0.24" offset="4%"></stop>
            <stop stop-color="#FFFFFF" stop-opacity="0.31" offset="6%"></stop>
            <stop stop-color="#FFFFFF" stop-opacity="0.36" offset="7%"></stop>
            <stop stop-color="#FFFFFF" stop-opacity="0.38" offset="10%"></stop>
            <stop stop-color="#FFFFFF" stop-opacity="0.39" offset="16%"></stop>
            <stop stop-color="#FFFFFF" stop-opacity="0.68" offset="84%"></stop>
            <stop stop-color="#FFFFFF" offset="100%"></stop>
        </linearGradient>
        <linearGradient x1="-13.6271088%" y1="50.0097599%" x2="86.3772876%" y2="50.0097599%" id="linearGradient-11">
            <stop stop-color="#FFFFFF" stop-opacity="0" offset="2%"></stop>
            <stop stop-color="#FFFFFF" stop-opacity="0.05" offset="2%"></stop>
            <stop stop-color="#FFFFFF" stop-opacity="0.16" offset="3%"></stop>
            <stop stop-color="#FFFFFF" stop-opacity="0.24" offset="4%"></stop>
            <stop stop-color="#FFFFFF" stop-opacity="0.31" offset="6%"></stop>
            <stop stop-color="#FFFFFF" stop-opacity="0.36" offset="7%"></stop>
            <stop stop-color="#FFFFFF" stop-opacity="0.38" offset="10%"></stop>
            <stop stop-color="#FFFFFF" stop-opacity="0.39" offset="16%"></stop>
            <stop stop-color="#FFFFFF" stop-opacity="0.68" offset="84%"></stop>
            <stop stop-color="#FFFFFF" offset="100%"></stop>
        </linearGradient>
        <linearGradient x1="0%" y1="49.9869076%" x2="99.9867865%" y2="49.9869076%" id="linearGradient-12">
            <stop stop-color="#000000" offset="1%"></stop>
            <stop stop-color="#000000" stop-opacity="0.69" offset="13%"></stop>
            <stop stop-color="#000000" stop-opacity="0" offset="100%"></stop>
        </linearGradient>
        <linearGradient x1="-24.8297181%" y1="50.015625%" x2="75.1755213%" y2="50.015625%" id="linearGradient-13">
            <stop stop-color="#FFFFFF" stop-opacity="0" offset="2%"></stop>
            <stop stop-color="#FFFFFF" stop-opacity="0.05" offset="2%"></stop>
            <stop stop-color="#FFFFFF" stop-opacity="0.16" offset="3%"></stop>
            <stop stop-color="#FFFFFF" stop-opacity="0.24" offset="4%"></stop>
            <stop stop-color="#FFFFFF" stop-opacity="0.31" offset="6%"></stop>
            <stop stop-color="#FFFFFF" stop-opacity="0.36" offset="7%"></stop>
            <stop stop-color="#FFFFFF" stop-opacity="0.38" offset="10%"></stop>
            <stop stop-color="#FFFFFF" stop-opacity="0.39" offset="16%"></stop>
            <stop stop-color="#FFFFFF" stop-opacity="0.68" offset="84%"></stop>
            <stop stop-color="#FFFFFF" offset="100%"></stop>
        </linearGradient>
        <linearGradient x1="50%" y1="121.105001%" x2="50%" y2="9.1647028%" id="linearGradient-14">
            <stop stop-color="#000000" offset="1%"></stop>
            <stop stop-color="#000000" stop-opacity="0.69" offset="13%"></stop>
            <stop stop-color="#000000" stop-opacity="0" offset="100%"></stop>
        </linearGradient>
        <linearGradient x1="57.0428118%" y1="73.2700613%" x2="45.0052854%" y2="33.5562511%" id="linearGradient-15">
            <stop stop-color="#000000" offset="1%"></stop>
            <stop stop-color="#000000" stop-opacity="0.69" offset="13%"></stop>
            <stop stop-color="#000000" stop-opacity="0" offset="100%"></stop>
        </linearGradient>
        <linearGradient x1="101.092759%" y1="-5.99117091%" x2="-79.9138645%" y2="170.86399%" id="linearGradient-16">
            <stop stop-color="#000000" offset="1%"></stop>
            <stop stop-color="#000000" stop-opacity="0.69" offset="13%"></stop>
            <stop stop-color="#000000" stop-opacity="0" offset="100%"></stop>
        </linearGradient>
    </defs>
    <g id="Page-1" stroke="none" stroke-width="1" fill="none" fill-rule="evenodd">
        <g id="pop-up1" transform="translate(-308.000000, -122.000000)" fill-rule="nonzero">
            <g id="click_here" transform="translate(308.000000, 122.000000)">
                <path d="M451.520582,231.70758 C429.47548,266.578144 401.352471,297.118083 373.094146,327.195636 C345.196662,356.889749 316.29559,386.78686 280.121326,405.496519 C236.561107,428.051865 185.400685,432.461435 136.709765,426.7211 C79.3925003,419.954496 10.5170625,399.598296 4.9916918,330.86088 C3.66109232,314.215035 7.0326961,297.580467 7.97990251,280.912067 C10.8891794,230.433203 -22.3645315,171.033699 28.6831284,134.302318 C56.9640056,114.002507 97.3894222,114.994942 123.234626,91.6614371 C142.607252,74.1697664 149.733853,46.3590249 168.260759,27.976418 C181.21719,15.1762593 198.909652,7.92471557 216.861469,4.55269136 C240.54163,0.109288227 264.672841,2.29715678 288.56725,1.05661275 C313.893745,-0.217764288 339.513424,-1.19892183 364.580565,3.45875709 C383.627514,7.01178183 401.876083,13.976674 418.447291,24.0179548 C428.543692,30.1484064 437.848672,37.4963559 446.153079,45.8966403 C467.972655,68.079823 482.169475,98.0333223 483.827086,129.080756 C485.777881,165.496362 470.983419,200.896977 451.520582,231.70758 Z" id="Path" fill="#04C4CA" opacity="0.18"></path>
                <path d="M103.925761,354.154227 C93.0785185,353.635119 80.246749,353.966465 74,362.64772 C77.9239506,367.430142 84.1481481,369.716427 90.2257613,371.34002 C107.004033,375.846321 124.503951,376.950806 141.86856,378.033202 C162.255062,379.314405 183.36321,380.485159 202.475556,373.416453 C205.99358,372.11316 209.737119,370.2024 211,366.734316 C205.023868,361.53219 196.43177,360.659646 188.44856,360.041135 C160.450947,357.865298 132.024856,354.154227 103.925761,354.154227 Z" id="Path" fill="url(#linearGradient-1)"></path>
                <path d="M140.064712,366.750081 C140.064712,369.046814 140.213001,371.69954 141.958248,373.226867 C143.049891,374.043827 144.344847,374.540655 145.699691,374.662324 C151.510493,375.532792 157.447373,374.711969 162.809951,372.29669 C163.239688,372.155337 163.609454,371.872099 163.859381,371.492834 C163.967452,371.219393 164.014193,370.925295 163.996263,370.631559 C163.944605,369.152779 163.365529,367.742223 162.365085,366.658212 C160.867271,365.292647 159.05665,364.322057 157.095125,363.833231 L148.733911,361.042701 C146.452543,360.261812 143.61224,359.549825 141.216803,360.353681 C139.916424,360.79006 140.076119,360.215877 140.007678,362.053263 C139.973458,363.603558 140.064712,365.188303 140.064712,366.750081 Z" id="Path" fill="#2E2E3F"></path>
                <path d="M140.064712,366.750081 C140.064712,369.046814 140.213001,371.69954 141.958248,373.226867 C143.049891,374.043827 144.344847,374.540655 145.699691,374.662324 C151.510493,375.532792 157.447373,374.711969 162.809951,372.29669 C163.239688,372.155337 163.609454,371.872099 163.859381,371.492834 C163.967452,371.219393 164.014193,370.925295 163.996263,370.631559 C163.944605,369.152779 163.365529,367.742223 162.365085,366.658212 C160.867271,365.292647 159.05665,364.322057 157.095125,363.833231 L148.733911,361.042701 C146.452543,360.261812 143.61224,359.549825 141.216803,360.353681 C139.916424,360.79006 140.076119,360.215877 140.007678,362.053263 C139.973458,363.603558 140.064712,365.188303 140.064712,366.750081 Z" id="Path" fill="url(#linearGradient-2)"></path>
                <path d="M114.170849,257.313585 C116.056638,287.938128 117.987867,318.992728 111.660251,348.983504 C111.138263,350.891795 110.923537,352.870515 111.024081,354.845852 C111.149788,356.852385 112.293079,358.656827 114.057247,359.633059 C116.255377,360.450659 118.731309,359.875272 120.339422,358.173131 C121.887814,356.483347 123.050481,354.479528 123.747474,352.299465 C128.189301,340.846384 130.961183,328.816122 133.562662,316.808494 C136.894979,301.409457 139.973586,285.942515 142.798482,270.407671 C144.979635,258.388726 147.013106,246.1208 145.445402,234 L126.82608,235.889985 C122.282012,236.342676 116.033917,237.315961 114.057247,242.227658 C112.387302,246.324511 113.909565,253.080924 114.170849,257.313585 Z" id="Path" fill="#2E2E3F"></path>
                <path d="M114.170849,257.313585 C116.056638,287.938128 117.987867,318.992728 111.660251,348.983504 C111.138263,350.891795 110.923537,352.870515 111.024081,354.845852 C111.149788,356.852385 112.293079,358.656827 114.057247,359.633059 C116.255377,360.450659 118.731309,359.875272 120.339422,358.173131 C121.887814,356.483347 123.050481,354.479528 123.747474,352.299465 C128.189301,340.846384 130.961183,328.816122 133.562662,316.808494 C136.894979,301.409457 139.973586,285.942515 142.798482,270.407671 C144.979635,258.388726 147.013106,246.1208 145.445402,234 L126.82608,235.889985 C122.282012,236.342676 116.033917,237.315961 114.057247,242.227658 C112.387302,246.324511 113.909565,253.080924 114.170849,257.313585 Z" id="Path" fill="url(#linearGradient-3)"></path>
                <path d="M111.035385,360.984226 C110.935784,362.4631 111.290627,363.936458 112.047266,365.185703 C112.653057,365.909138 113.4047,366.480217 114.247009,366.857008 C118.482151,368.975928 123.266068,369.543644 127.841419,368.470282 C129.105352,368.224656 130.302951,367.689838 131.350009,366.903433 C132.398347,366.090109 133.01222,364.79454 133,363.421547 C132.84376,362.124821 132.176894,360.957599 131.16303,360.206605 C130.156447,359.478091 129.079971,358.863438 127.951406,358.372811 C123.81589,356.295285 120.252307,351.722408 115.632847,351.049243 C110.606435,350.341259 110.958394,357.444308 111.035385,360.984226 Z" id="Path" fill="#2E2E3F"></path>
                <path d="M111.035385,360.984226 C110.935784,362.4631 111.290627,363.936458 112.047266,365.185703 C112.653057,365.909138 113.4047,366.480217 114.247009,366.857008 C118.482151,368.975928 123.266068,369.543644 127.841419,368.470282 C129.105352,368.224656 130.302951,367.689838 131.350009,366.903433 C132.398347,366.090109 133.01222,364.79454 133,363.421547 C132.84376,362.124821 132.176894,360.957599 131.16303,360.206605 C130.156447,359.478091 129.079971,358.863438 127.951406,358.372811 C123.81589,356.295285 120.252307,351.722408 115.632847,351.049243 C110.606435,350.341259 110.958394,357.444308 111.035385,360.984226 Z" id="Path" fill="url(#linearGradient-4)"></path>
                <path d="M164.790668,281.606712 C164.637281,290.13591 163.936956,298.64677 162.693941,307.087666 C161.548188,314.467023 159.714984,321.732677 157.904695,328.97559 L150.193781,360.118978 C150.081492,360.924956 149.712091,361.674074 149.139688,362.256603 C148.644771,362.601009 148.076078,362.826755 147.478347,362.916084 L143.227605,363.848452 C142.675225,364.023919 142.085243,364.047496 141.520434,363.916674 C140.305936,363.495972 140.065328,361.938234 140.042413,360.664754 C139.59557,339.06109 141.096506,317.389203 139.767433,295.853761 C138.850831,281.004084 136.605156,266.290851 135.253168,251.441174 C134.886527,247.370589 134.634461,243.027115 136.605156,239.434085 C138.896661,235.283907 143.479671,233.259985 147.730413,231.80458 C151.16767,230.667545 157.778662,227.461107 161.204463,229.882991 C164.630263,232.304876 164.000099,238.592679 164.206334,242.015154 C164.59589,248.253686 164.847956,254.496008 164.962531,260.74212 C165.046553,267.685614 164.989265,274.640478 164.790668,281.606712 Z" id="Path" fill="#2E2E3F"></path>
                <path d="M164.790668,281.606712 C164.637281,290.13591 163.936956,298.64677 162.693941,307.087666 C161.548188,314.467023 159.714984,321.732677 157.904695,328.97559 L150.193781,360.118978 C150.081492,360.924956 149.712091,361.674074 149.139688,362.256603 C148.644771,362.601009 148.076078,362.826755 147.478347,362.916084 L143.227605,363.848452 C142.675225,364.023919 142.085243,364.047496 141.520434,363.916674 C140.305936,363.495972 140.065328,361.938234 140.042413,360.664754 C139.59557,339.06109 141.096506,317.389203 139.767433,295.853761 C138.850831,281.004084 136.605156,266.290851 135.253168,251.441174 C134.886527,247.370589 134.634461,243.027115 136.605156,239.434085 C138.896661,235.283907 143.479671,233.259985 147.730413,231.80458 C151.16767,230.667545 157.778662,227.461107 161.204463,229.882991 C164.630263,232.304876 164.000099,238.592679 164.206334,242.015154 C164.59589,248.253686 164.847956,254.496008 164.962531,260.74212 C165.046553,267.685614 164.989265,274.640478 164.790668,281.606712 Z" id="Path" fill="url(#linearGradient-5)"></path>
                <path d="M153.089711,120.622175 C153.240429,122.371797 153.391147,124.300867 154.654863,125.568221 C155.478017,126.398169 156.764919,126.958945 156.973606,128.091713 C157.182293,129.224481 156.104078,130.334817 155.478017,131.344215 C154.051989,133.755552 155.08383,136.951976 153.901271,139.453037 C153.14736,140.875296 151.922909,142.012424 150.423156,142.683108 C148.924452,143.358657 147.374004,143.921109 145.785668,144.365436 C144.309671,144.695549 143.002984,145.522357 142.098866,146.698265 C140.661245,149.06474 142.643771,152.306026 141.472805,154.795872 C140.568495,156.747372 138.122221,157.498812 135.931008,157.824063 C134.784316,158.058646 133.599584,158.058646 132.452892,157.824063 C130.751981,157.297959 129.353571,156.111726 128.592184,154.54913 C127.84794,152.998479 127.358961,151.344771 127.14297,149.647947 C126.169097,144.163556 125.635786,138.600657 125.183631,133.048974 C124.928569,129.908628 124.719882,126.600049 126.14591,123.773737 C127.213156,121.891011 128.688295,120.253574 130.470367,118.973493 C132.423762,117.280954 134.745721,116.035187 137.264285,115.328449 C139.53467,114.932063 141.856451,114.894187 144.13936,115.216293 L147.976881,115.563975 C148.956215,115.509091 149.938742,115.580754 150.898498,115.77707 C152.695524,116.461216 152.96218,119.164157 153.089711,120.622175 Z" id="Path" fill="#98646A"></path>
                <path d="M151.695801,117.902805 C151.50183,118.279716 151.242009,118.617401 150.9291,118.899275 C146.917808,122.896479 140.761975,123.836332 136.484004,127.516478 C136.202623,127.731042 135.961689,127.995753 135.772861,128.297801 C135.51438,128.91095 135.425981,129.584631 135.517294,130.245447 C135.574606,131.974073 135.459191,133.704157 135.172834,135.408974 C134.712526,134.881055 134.425113,134.220065 134.350574,133.517946 C134.172789,132.827211 133.772771,132.079858 133.083851,132.011917 C132.570389,132.006975 132.101352,132.307927 131.883797,132.781917 C131.669217,133.242653 131.55187,133.744139 131.539337,134.253975 C131.366927,135.292132 131.366927,136.352434 131.539337,137.390591 C131.729207,138.459956 132.441493,139.356618 133.428311,139.768532 C133.572836,139.790421 133.703856,139.867296 133.794994,139.983678 C133.939445,140.221473 133.672766,140.493237 133.439422,140.651766 L127.239143,144.694265 C127.015983,144.866007 126.750714,144.971788 126.472441,145 C125.994642,145 125.661294,144.524412 125.36128,144.116765 C123.773672,141.774903 122.492447,139.232102 121.549997,136.55265 C121.038863,134.854122 120.794408,133.087652 120.305497,131.389123 C119.949925,130.143535 119.461014,128.943242 119.194335,127.663683 C119.007176,126.541984 118.954936,125.401213 119.038773,124.266626 C119.103295,123.000937 119.251789,121.741148 119.483237,120.495892 C119.949028,117.590255 121.092191,114.840938 122.816721,112.478837 C125.480278,109.22418 129.353322,107.246623 133.506092,107.020898 C137.636768,106.828066 141.721211,107.9737 145.173285,110.293396 C147.362272,111.595602 153.418101,114.267954 151.695801,117.902805 Z" id="Path" fill="#3D3D54"></path>
                <path d="M151.695801,117.902805 C151.50183,118.279716 151.242009,118.617401 150.9291,118.899275 C146.917808,122.896479 140.761975,123.836332 136.484004,127.516478 C136.202623,127.731042 135.961689,127.995753 135.772861,128.297801 C135.51438,128.91095 135.425981,129.584631 135.517294,130.245447 C135.574606,131.974073 135.459191,133.704157 135.172834,135.408974 C134.712526,134.881055 134.425113,134.220065 134.350574,133.517946 C134.172789,132.827211 133.772771,132.079858 133.083851,132.011917 C132.570389,132.006975 132.101352,132.307927 131.883797,132.781917 C131.669217,133.242653 131.55187,133.744139 131.539337,134.253975 C131.366927,135.292132 131.366927,136.352434 131.539337,137.390591 C131.729207,138.459956 132.441493,139.356618 133.428311,139.768532 C133.572836,139.790421 133.703856,139.867296 133.794994,139.983678 C133.939445,140.221473 133.672766,140.493237 133.439422,140.651766 L127.239143,144.694265 C127.015983,144.866007 126.750714,144.971788 126.472441,145 C125.994642,145 125.661294,144.524412 125.36128,144.116765 C123.773672,141.774903 122.492447,139.232102 121.549997,136.55265 C121.038863,134.854122 120.794408,133.087652 120.305497,131.389123 C119.949925,130.143535 119.461014,128.943242 119.194335,127.663683 C119.007176,126.541984 118.954936,125.401213 119.038773,124.266626 C119.103295,123.000937 119.251789,121.741148 119.483237,120.495892 C119.949028,117.590255 121.092191,114.840938 122.816721,112.478837 C125.480278,109.22418 129.353322,107.246623 133.506092,107.020898 C137.636768,106.828066 141.721211,107.9737 145.173285,110.293396 C147.362272,111.595602 153.418101,114.267954 151.695801,117.902805 Z" id="Path" fill="url(#linearGradient-6)"></path>
                <path d="M203.205977,130.366235 C204.368018,128.813709 205.780802,127.465147 207.386402,126.375843 C209.00467,125.277926 210.970876,124.812655 212.910534,125.068646 C212.497086,127.361975 209.729277,128.371039 208.626747,130.412101 C208.510556,130.598827 208.443406,130.811793 208.431508,131.0313 C208.507366,131.453087 208.746706,131.828012 209.097619,132.074765 C210.364348,133.141306 211.423319,134.431843 212.221453,135.88169 C213.025834,137.342489 213.215875,139.062549 212.749749,140.66328 C211.938513,142.506028 210.486024,143.992897 208.661201,144.848604 C206.853484,145.688551 205.156283,146.747636 203.607941,148.001931 C202.689166,148.884862 201.770391,150.065926 200.507076,149.997127 C199.739445,149.903375 199.066164,149.440954 198.703981,148.758729 C198.355151,148.090135 198.151645,147.355537 198.106777,146.603 C197.521012,140.723263 199.362589,134.859352 203.205977,130.366235 L203.205977,130.366235 Z" id="Path" fill="#98646A"></path>
                <path d="M205.736821,152.256792 C204.393006,158.8837 202.066155,165.266884 198.835212,171.189783 C197.795674,173.252208 196.487641,175.164417 194.946031,176.875366 C191.382823,180.570995 186.178515,182.265299 181.07537,182.560949 C175.972226,182.856599 164.866704,182.686032 159.864724,181.708112 C159.864724,182.049247 159.864724,182.379011 159.864724,182.731517 C159.786041,200.595618 170.588071,233.014813 163.236846,239.473635 C162.562421,240.076307 157.335632,241.042856 150.647591,242.123117 C141.059524,243.680967 128.49275,245.454868 121.995795,246.671583 C119.747714,247.103687 116.982574,247.387967 115.420157,245.659549 C115.296513,245.523095 115.195349,245.37527 115.082945,245.227445 C114.40018,243.83901 114.017029,242.319584 113.958905,240.769948 C113.408125,236.994721 111.553458,233.594742 110.193369,230.046938 C105.877053,218.800855 106.472794,206.303944 104.224713,194.455189 C103.381682,189.963578 102.122757,185.562937 101.504534,181.037213 C100.944629,176.712731 100.850407,172.33954 101.223524,167.994486 C101.571977,163.446019 102.898345,158.226654 107.068536,156.623319 L107.237142,156.555092 L107.237142,156.555092 C108.484827,156.134359 109.912358,155.975163 110.77787,154.963129 C111.90191,153.70093 111.519736,151.779203 111.90191,150.153126 C111.90191,150.005301 111.980593,149.868847 112.025555,149.721022 C112.958508,146.991942 116.184505,145.468206 119.08453,145.638773 C121.681064,145.797969 123.648135,147.060169 125.974899,148.04946 C127.840806,148.845442 129.60555,148.572534 131.595102,148.663503 C136.709487,148.92504 139.047491,148.24277 143.644817,150.698942 C144.319242,151.062819 143.487452,154.565138 144.139395,154.985872 C145.960341,156.122988 152.086363,155.770482 153.94103,156.896227 C158.209601,159.322844 162.796221,161.126003 167.564402,162.252047 C171.307457,163.252709 175.432686,164.116918 178.962174,162.547697 C182.053286,161.171786 184.11028,158.238025 186.021149,155.429347 C188.561481,151.665491 191.113053,147.924377 193.653385,144.171893 C194.33905,143.159859 195.215801,142.034113 196.429765,142 C197.163718,142.062455 197.867026,142.325824 198.464279,142.761868 L202.746873,145.399979 C203.872259,145.959567 204.827544,146.815969 205.512013,147.878893 C206.073765,149.270578 206.153006,150.813714 205.736821,152.256792 Z" id="Path" fill="#04C4CA"></path>
                <path d="M115,244 C114.205981,243.565712 113.492437,242.996802 112.890796,242.318328 C110.994756,240.196486 109.951373,237.420033 108.122648,235.219187 C106.888539,233.718097 105.317855,232.510453 104.207157,230.919071 C103.217125,229.380699 102.478517,227.692679 102.019419,225.9192 C97.1615174,209.7458 96.2639836,192.646915 96.0620386,175.7399 C95.8515636,172.450761 96.1774855,169.149139 97.0268873,165.965884 C98.514284,161.48939 101.9261,157.924484 106.316361,156.259587 C106.581976,156.151037 106.855864,156.064226 107.135361,156 L106.967073,156.067718 C102.804761,157.647813 101.480898,162.839554 101.133104,167.354111 C100.774753,171.672144 100.883845,176.016565 101.45846,180.310889 C102.075514,184.825446 103.332062,189.170707 104.1735,193.628832 C106.417334,205.389252 105.822718,217.792997 110.13088,228.955239 C111.488399,232.476594 113.339563,235.851225 113.889302,239.598307 C113.946969,241.127897 114.32548,242.627935 115,244 L115,244 Z" id="Path" fill="#04C4CA"></path>
                <path d="M115,244 C114.205981,243.565712 113.492437,242.996802 112.890796,242.318328 C110.994756,240.196486 109.951373,237.420033 108.122648,235.219187 C106.888539,233.718097 105.317855,232.510453 104.207157,230.919071 C103.217125,229.380699 102.478517,227.692679 102.019419,225.9192 C97.1615174,209.7458 96.2639836,192.646915 96.0620386,175.7399 C95.8515636,172.450761 96.1774855,169.149139 97.0268873,165.965884 C98.514284,161.48939 101.9261,157.924484 106.316361,156.259587 C106.581976,156.151037 106.855864,156.064226 107.135361,156 L106.967073,156.067718 C102.804761,157.647813 101.480898,162.839554 101.133104,167.354111 C100.774753,171.672144 100.883845,176.016565 101.45846,180.310889 C102.075514,184.825446 103.332062,189.170707 104.1735,193.628832 C106.417334,205.389252 105.822718,217.792997 110.13088,228.955239 C111.488399,232.476594 113.339563,235.851225 113.889302,239.598307 C113.946969,241.127897 114.32548,242.627935 115,244 L115,244 Z" id="Path" fill="url(#linearGradient-7)"></path>
                <path d="M139.01989,169.853631 C138.364352,174.931946 136.296018,179.71879 134.792803,184.628948 C129.141616,203.283066 131.639441,224.235317 122.676659,241.566607 C122.223576,242.601771 121.534984,243.518818 120.664837,244.245894 C118.96936,245.282907 116.820804,245.247899 115.160582,244.156211 C114.474053,242.787404 114.088789,241.289459 114.030345,239.761731 C113.476528,236.039876 111.611637,232.687964 110.24405,229.190317 C105.903939,218.103224 106.502964,205.782987 104.24249,194.101742 C103.394812,189.673631 102.128946,185.335204 101.507316,180.873462 C100.944324,176.610117 100.849582,172.298751 101.224757,168.015124 C101.57513,163.530962 102.90881,158.385385 107.10199,156.804717 L107.271526,156.737455 L107.271526,156.737455 C108.526089,156.32267 109.96149,156.165724 110.831773,155.167998 C111.96201,153.923643 111.57773,152.029084 111.96201,150.425995 C111.96201,150.28026 112.041127,150.145735 112.086336,150 C111.735963,154.360848 109.938886,161.378563 109.825862,162.9256 C109.690234,166.288722 112.775781,169.091324 116.076074,169.797579 C119.376367,170.503835 122.789683,169.607002 126.010859,168.575645 C131.209385,167.083123 135.954421,164.337066 139.822358,160.582624 C140.410082,163.21707 139.381566,167.095871 139.01989,169.853631 Z" id="Path" fill="url(#linearGradient-8)"></path>
                <path d="M163.290814,239.327062 C162.585726,239.93507 157.121297,240.910176 150.129177,242 C150.657993,238.271654 152.632238,234.841575 153.77213,231.227947 C155.534849,225.61822 155.276317,219.595506 154.629987,213.756342 C153.360829,202.468056 150.704999,191.374792 149.001037,180.143865 C148.895274,179.489971 156.90977,181.291049 159.788878,181.05014 C159.706618,199.072393 171.035027,232.81106 163.290814,239.327062 Z" id="Path" fill="url(#linearGradient-9)"></path>
                <path d="M451.550078,231.567905 C429.524997,266.418033 401.427527,296.940072 373.194865,327 L251.904826,327 C242.38331,327 233.250748,323.220985 226.516963,316.486303 C219.783178,309.751621 216,300.616164 216,291.09039 L216,59.9096097 C216,50.3838363 219.783178,41.2483786 226.516963,34.5136967 C233.250748,27.7790148 242.38331,24 251.904826,24 L418.506823,24 C428.594054,30.1268605 437.890584,37.4705034 446.18745,45.8658647 C467.98721,68.0360463 482.171138,97.9719906 483.827243,129.001228 C485.776266,165.395492 470.99524,200.77536 451.550078,231.567905 Z" id="Path" fill="#04C4CA"></path>
                <path d="M483.04071,151.056881 C482.484915,155.565641 481.733841,160.010528 480.787487,164.391541 C475.593808,188.118894 464.643145,210.888136 451.574452,231.560804 C434.01058,259.346043 412.593697,284.392209 390.331854,308.626798 C384.676265,314.788771 378.971856,320.913171 373.218627,327 L251.905107,327 C242.383516,327 233.250883,323.220704 226.517045,316.485521 C219.783208,309.750338 216,300.614201 216,291.087719 L216,59.9122814 C216,50.3857994 219.783208,41.2496619 226.517045,34.5144789 C233.250883,27.7792959 242.383516,24 251.905107,24 L418.508407,24 C428.595717,30.1273163 437.892319,37.4715057 446.18925,45.8674916 C459.476554,59.3749575 469.755046,75.5439516 476.348638,93.3109269 C480.619874,104.766906 483.141741,116.801322 483.829338,129.00904 C484.213159,136.367239 483.949265,143.744956 483.04071,151.056881 L483.04071,151.056881 Z" id="Path" fill="url(#linearGradient-10)"></path>
                <path d="M483.037458,151 L265,151 L265,93 L476.3227,93 C480.608416,104.506378 483.138831,116.593739 483.828759,128.855163 C484.213881,136.245733 483.949093,143.655908 483.037458,151 L483.037458,151 Z" id="Path" fill="url(#linearGradient-11)"></path>
                <rect id="Rectangle" fill="url(#linearGradient-12)" x="230" y="76" width="85" height="43" rx="10.12"></rect>
                <path d="M480,164.045 C474.806927,187.72625 463.85754,210.45125 450.79037,231.08375 C433.228544,258.815 411.814157,283.8125 389.554909,308 L265,308 L265,164 L480,164.045 Z" id="Path" fill="url(#linearGradient-13)"></path>
                <polygon id="Path" fill="#04C4CA" points="197 43.3936049 217.403425 65 221 62.3049105 209.308278 35"></polygon>
                <polygon id="Path" fill="#04C4CA" points="231 27.6707819 235.912088 58 240.538462 57.7057613 244 25"></polygon>
                <polygon id="Path" fill="#04C4CA" points="185.198191 70 214 75.299115 214 81.7132743 184 82"></polygon>
                <rect id="Rectangle" fill="#04C4CA" x="228" y="76" width="85" height="43" rx="10.12"></rect>
                <rect id="Rectangle" fill="url(#linearGradient-14)" x="226" y="76" width="85" height="43" rx="10.12"></rect>
                <rect id="Rectangle" fill="url(#linearGradient-15)" x="228" y="85" width="85" height="23"></rect>
                <polygon id="Path" fill="url(#linearGradient-16)" points="268.436937 100 264 100.306496 274.056306 139.674164 278.493243 139.37902 287.963964 129.832247 299.506757 154 303.943694 153.693504 314 147.132226 294.472973 125.654824 308.087838 117.901619"></polygon>
                <polygon id="Path" fill="#FFFFFF" points="263 101 273.152743 139.859197 282.714286 130.435729 298.847257 154 309 147.512262 289.285714 126.312262 303.031142 118.659197"></polygon>
            </g>
        </g>
    </g>
</svg>