<?xml version="1.0" encoding="UTF-8"?>
<svg width="209px" height="176px" viewBox="0 0 209 176" version="1.1" xmlns="http://www.w3.org/2000/svg" xmlns:xlink="http://www.w3.org/1999/xlink">
    <!-- Generator: sketchtool 57.1 (101010) - https://sketch.com -->
    <title>33E25EF7-8B9F-4133-988C-236D0B1C722A</title>
    <desc>Created with sketchtool.</desc>
    <defs>
        <linearGradient x1="38.8397028%" y1="105.649056%" x2="71.805734%" y2="10.4459422%" id="linearGradient-1">
            <stop stop-color="#000000" stop-opacity="0" offset="0%"></stop>
            <stop stop-color="#000000" offset="99%"></stop>
        </linearGradient>
        <linearGradient x1="0%" y1="50%" x2="100%" y2="50%" id="linearGradient-2">
            <stop stop-color="#000000" stop-opacity="0" offset="0%"></stop>
            <stop stop-color="#000000" offset="99%"></stop>
        </linearGradient>
        <linearGradient x1="43.4108834%" y1="46.6495423%" x2="73.4371774%" y2="108.1272%" id="linearGradient-3">
            <stop stop-color="#000000" stop-opacity="0" offset="0%"></stop>
            <stop stop-color="#000000" offset="80%"></stop>
        </linearGradient>
        <linearGradient x1="41.5483896%" y1="46.3143808%" x2="65.1407054%" y2="83.7941439%" id="linearGradient-4">
            <stop stop-color="#000000" stop-opacity="0" offset="0%"></stop>
            <stop stop-color="#000000" offset="80%"></stop>
        </linearGradient>
        <linearGradient x1="0.0256712107%" y1="49.8949207%" x2="100.016975%" y2="49.8949207%" id="linearGradient-5">
            <stop stop-color="#E5C5D5" offset="0%"></stop>
            <stop stop-color="#EAD4D1" offset="42%"></stop>
            <stop stop-color="#F0E9CB" offset="100%"></stop>
        </linearGradient>
        <linearGradient x1="41.5183153%" y1="124.769985%" x2="61.3392059%" y2="-106.951815%" id="linearGradient-6">
            <stop stop-color="#000000" stop-opacity="0" offset="0%"></stop>
            <stop stop-color="#000000" offset="99%"></stop>
        </linearGradient>
        <linearGradient x1="59.4753495%" y1="47.4956518%" x2="37.9324317%" y2="94.2975173%" id="linearGradient-7">
            <stop stop-color="#000000" stop-opacity="0" offset="0%"></stop>
            <stop stop-color="#000000" offset="99%"></stop>
        </linearGradient>
        <linearGradient x1="0.249455271%" y1="50.0302675%" x2="99.9848042%" y2="50.0302675%" id="linearGradient-8">
            <stop stop-color="#867580" offset="0%"></stop>
            <stop stop-color="#9B8F8E" offset="57%"></stop>
        </linearGradient>
        <linearGradient x1="38.6965282%" y1="23.9811443%" x2="81.1746065%" y2="132.222894%" id="linearGradient-9">
            <stop stop-color="#000000" stop-opacity="0" offset="0%"></stop>
            <stop stop-color="#000000" offset="99%"></stop>
        </linearGradient>
        <linearGradient x1="-0.113603062%" y1="49.8288221%" x2="99.8867061%" y2="49.8288221%" id="linearGradient-10">
            <stop stop-color="#867580" offset="0%"></stop>
            <stop stop-color="#9B8F8E" offset="57%"></stop>
        </linearGradient>
        <linearGradient x1="-0.00127744307%" y1="49.9893557%" x2="99.9999115%" y2="49.9893557%" id="linearGradient-11">
            <stop stop-color="#E5C5D5" offset="0%"></stop>
            <stop stop-color="#EAD4D1" offset="42%"></stop>
            <stop stop-color="#F0E9CB" offset="100%"></stop>
        </linearGradient>
        <linearGradient x1="0.0130601311%" y1="49.8913193%" x2="99.9846848%" y2="49.8913193%" id="linearGradient-12">
            <stop stop-color="#E5C5D5" offset="0%"></stop>
            <stop stop-color="#EAD4D1" offset="42%"></stop>
            <stop stop-color="#F0E9CB" offset="100%"></stop>
        </linearGradient>
        <linearGradient x1="-0.00918234648%" y1="49.9962897%" x2="100.105963%" y2="49.9962897%" id="linearGradient-13">
            <stop stop-color="#867580" offset="0%"></stop>
            <stop stop-color="#9B8F8E" offset="57%"></stop>
        </linearGradient>
        <linearGradient x1="-0.646429637%" y1="50.0695806%" x2="100.194126%" y2="50.0695806%" id="linearGradient-14">
            <stop stop-color="#867580" offset="0%"></stop>
            <stop stop-color="#9B8F8E" offset="57%"></stop>
        </linearGradient>
        <linearGradient x1="-0.140367158%" y1="49.7577999%" x2="99.7730968%" y2="49.7577999%" id="linearGradient-15">
            <stop stop-color="#867580" offset="0%"></stop>
            <stop stop-color="#9B8F8E" offset="57%"></stop>
        </linearGradient>
        <linearGradient x1="-0.133592001%" y1="49.9775582%" x2="100.064254%" y2="49.9775582%" id="linearGradient-16">
            <stop stop-color="#E5C5D5" offset="0%"></stop>
            <stop stop-color="#EAD4D1" offset="42%"></stop>
            <stop stop-color="#F0E9CB" offset="100%"></stop>
        </linearGradient>
        <linearGradient x1="0.0112548759%" y1="49.9925966%" x2="100.018606%" y2="49.9925966%" id="linearGradient-17">
            <stop stop-color="#E5C5D5" offset="0%"></stop>
            <stop stop-color="#EAD4D1" offset="42%"></stop>
            <stop stop-color="#F0E9CB" offset="100%"></stop>
        </linearGradient>
        <linearGradient x1="0.0261997257%" y1="50.0851419%" x2="100.178433%" y2="50.0851419%" id="linearGradient-18">
            <stop stop-color="#E5C5D5" offset="0%"></stop>
            <stop stop-color="#EAD4D1" offset="42%"></stop>
            <stop stop-color="#F0E9CB" offset="100%"></stop>
        </linearGradient>
        <linearGradient x1="12.263228%" y1="107.781636%" x2="122.475164%" y2="-77.909916%" id="linearGradient-19">
            <stop stop-color="#000000" stop-opacity="0" offset="0%"></stop>
            <stop stop-color="#000000" offset="99%"></stop>
        </linearGradient>
        <linearGradient x1="0.0186484431%" y1="49.9713584%" x2="100.007696%" y2="49.9713584%" id="linearGradient-20">
            <stop stop-color="#E5C5D5" offset="0%"></stop>
            <stop stop-color="#EAD4D1" offset="42%"></stop>
            <stop stop-color="#F0E9CB" offset="100%"></stop>
        </linearGradient>
        <linearGradient x1="-0.123820494%" y1="50.4884359%" x2="100.006397%" y2="50.4884359%" id="linearGradient-21">
            <stop stop-color="#E5C5D5" offset="0%"></stop>
            <stop stop-color="#EAD4D1" offset="42%"></stop>
            <stop stop-color="#F0E9CB" offset="100%"></stop>
        </linearGradient>
    </defs>
    <g id="Page-1" stroke="none" stroke-width="1" fill="none" fill-rule="evenodd">
        <g id="NIBSS-LANDING-Copy" transform="translate(-748.000000, -849.000000)">
            <g id="Group-3" transform="translate(200.000000, 671.000000)">
                <g id="Group-2" transform="translate(548.000000, 178.000000)">
                    <g id="looking_for_idea_with_team" fill-rule="nonzero">
                        <path d="M0.875371963,132.855503 C-0.257433357,119.120851 -1.27405352,104.660759 4.52068139,92.1676296 C7.7762454,85.3710578 11.9714264,79.0718243 16.9815399,73.4571476 C21.4546686,68.4813182 28.4838708,67.2105829 34.1914669,64.2065841 C43.4378693,59.3378664 49.6295701,50.1992834 54.717512,41.0363567 C59.8054538,31.8734301 64.3027878,22.1408635 71.6611813,14.681988 C79.8231888,6.3759557 91.1221957,1.49263189 102.668096,0.304664778 C114.213996,-0.883302331 125.997108,1.47315702 136.642574,6.14712597 C141.52235,8.29423046 146.252055,10.9671565 150.076483,14.7014629 C158.102941,22.544967 161.210894,33.9864536 165.398401,44.4249842 C167.695381,50.1510626 170.400493,55.7028541 173.492634,61.0370489 C176.237508,65.7694424 180.318512,70.156157 182.651897,75.0346121 C184.985283,79.9130672 186.40371,84.7477039 189.390637,89.4119354 C192.208127,93.8181249 195.325762,98.0393031 197.847948,102.635373 C203.618775,113.226398 205.986403,125.35501 204.625416,137.354198 C203.913782,143.474176 202.141958,149.637973 198.370781,154.492084 C194.251049,159.794118 188.127123,163.09024 181.978992,165.743691 C156.672595,176.58206 128.560535,178.902969 101.835436,172.360278 C92.3130936,169.99895 82.9553471,166.517817 73.1861115,165.865409 C63.3200549,165.213001 53.5266141,167.491561 43.7041269,168.621103 C34.1866258,169.716564 20.1088572,169.906444 11.7241614,164.375581 C2.70528825,158.42114 1.66446285,142.446877 0.875371963,132.855503 Z" id="Path" fill="#04C4CA" opacity="0.18"></path>
                        <path d="M88.8694677,109.446508 C89.1366804,114.003599 88.4087563,118.590248 88.8049681,123.137486 C88.9431815,124.615461 89.1965728,126.162408 88.7358614,127.571411 C88.3099382,128.77995 87.4698726,129.769861 86.386233,130.340152 C83.8661414,131.719595 80.590483,130.83281 78.6232451,128.64048 C76.6560072,126.44815 75.8589764,123.29021 76.0202254,120.265287 C76.1814745,117.240364 77.167397,114.353386 78.3468183,111.594499 C79.4064546,109.131207 81.194015,104.268668 83.8154631,103.219306 C87.2016923,101.898982 88.7220401,106.864978 88.8694677,109.446508 Z" id="Path" fill="#3E3E54"></path>
                        <path d="M84.2914577,100.21556 C83.2204501,98.224139 80.2599792,97.3919753 78.1226409,98.4838895 C77.4886381,98.8932335 76.827585,99.2564871 76.1443167,99.5709935 C75.3398918,99.8499848 74.4653135,99.7778319 73.6234734,99.8644154 C70.9155546,100.153027 68.5163104,102.322425 68.1094211,104.842967 C67.8802535,106.286025 68.2356971,107.729084 68.0112064,109.172142 C67.4827179,112.57776 63.8674825,115.146404 63.5026852,118.566453 C63.3857629,119.677608 63.6289612,120.783952 63.722499,121.890297 C63.8865765,123.968314 63.5357972,126.055198 62.7029371,127.955953 C62.1089722,129.317238 61.271809,130.615991 61.0519952,132.063859 C60.6170445,134.949976 62.9695198,137.720648 65.91596,138.605724 C68.8624002,139.4908 72.1736378,138.793322 74.9657406,137.432037 C78.0431337,135.931256 80.7837908,133.473246 81.7098149,130.36105 C83.1596505,125.507564 79.974689,120.346225 81.4058171,115.487928 C81.802384,114.358995 82.2710954,113.258266 82.8088839,112.192945 C84.2119506,109.037457 86.0219067,103.4432 84.2914577,100.21556 Z" id="Path" fill="#3E3E54"></path>
                        <path d="M72.1646719,119.864728 C72.1978751,118.552451 71.9939126,116.980603 72.9805218,116.149013 C73.0640054,116.068626 73.1700979,116.016549 73.2840939,116 C73.3953334,116.005487 73.5032375,116.04028 73.5971526,116.100944 C74.6754979,116.699718 75.6393631,117.489283 76.4431409,118.432279 C77.4297502,119.590736 78.198167,120.994344 79.4693752,121.797092 C79.981653,122.128766 80.555594,122.349883 81.0868452,122.638295 C82.1849119,123.239729 83.1075298,124.123319 83.7620742,125.20036 C83.9555223,125.459716 84.0360522,125.787889 83.9850099,126.108859 C83.8664271,126.517444 83.4015823,126.695298 82.988914,126.777015 C81.8016683,126.980531 80.5952702,127.045046 79.3934821,126.96929 C77.7554578,126.924426 76.1190145,126.85713 74.4841523,126.767401 C73.4300663,126.746693 72.3815841,126.606419 71.3583085,126.349203 C70.9219236,126.224224 70.1203036,125.916584 70.0112074,125.387828 C69.9021112,124.859072 70.6183515,124.320702 70.9076937,123.873662 C71.6800969,122.678758 72.1148148,121.292294 72.1646719,119.864728 Z" id="Path" fill="url(#linearGradient-1)"></path>
                        <rect id="Rectangle" fill="#04C4CA" x="3" y="143" width="206" height="8"></rect>
                        <rect id="Rectangle" fill="url(#linearGradient-2)" x="3" y="143" width="206" height="4"></rect>
                        <path d="M89.4744982,131.551214 L91,144.626785 C80.0186611,145.208112 69.0135441,145.11025 58.0434946,144.33372 C57.797903,141.984318 58.6338591,139.669107 59.5075985,137.495544 C61.6801397,132.083615 64.7311432,126.290703 70.1294358,124.517661 C74.257264,123.159794 77.8797403,124.854685 81.9367249,125.274745 C83.9486869,125.484775 86.1542885,124.786304 87.7459111,126.442119 C88.9644234,127.712066 89.2714129,129.831901 89.4744982,131.551214 Z" id="Path" fill="#04C4CA"></path>
                        <path d="M89.4744982,131.551214 L91,144.626785 C80.0186611,145.208112 69.0135441,145.11025 58.0434946,144.33372 C57.797903,141.984318 58.6338591,139.669107 59.5075985,137.495544 C61.6801397,132.083615 64.7311432,126.290703 70.1294358,124.517661 C74.257264,123.159794 77.8797403,124.854685 81.9367249,125.274745 C83.9486869,125.484775 86.1542885,124.786304 87.7459111,126.442119 C88.9644234,127.712066 89.2714129,129.831901 89.4744982,131.551214 Z" id="Path" fill="url(#linearGradient-3)"></path>
                        <path d="M40.3324881,124.619904 C41.6540897,124.936582 43.0097031,125.321468 44.0737867,126.169191 C44.8935142,126.881599 45.5782515,127.736534 46.0950597,128.692871 C48.6930961,133.052493 50.3484747,137.91089 50.9538891,142.953127 C51.039305,143.361646 51.0055681,143.786189 50.8567125,144.175991 C50.4923003,144.91653 49.4913815,145.009098 48.6653805,144.999354 L10.3292169,144.585236 L6,144.858067 C6.97176587,140.531758 9.79960455,126.178935 15.8877177,124.317842 C18.3274605,123.704464 20.8114828,123.284182 23.3168678,123.060874 C25.9244283,122.952841 28.5359401,122.988623 31.139583,123.168057 C34.237361,123.407417 37.3113111,123.89289 40.3324881,124.619904 L40.3324881,124.619904 Z" id="Path" fill="#04C4CA"></path>
                        <path d="M40.3324881,124.619904 C41.6540897,124.936582 43.0097031,125.321468 44.0737867,126.169191 C44.8935142,126.881599 45.5782515,127.736534 46.0950597,128.692871 C48.6930961,133.052493 50.3484747,137.91089 50.9538891,142.953127 C51.039305,143.361646 51.0055681,143.786189 50.8567125,144.175991 C50.4923003,144.91653 49.4913815,145.009098 48.6653805,144.999354 L10.3292169,144.585236 L6,144.858067 C6.97176587,140.531758 9.79960455,126.178935 15.8877177,124.317842 C18.3274605,123.704464 20.8114828,123.284182 23.3168678,123.060874 C25.9244283,122.952841 28.5359401,122.988623 31.139583,123.168057 C34.237361,123.407417 37.3113111,123.89289 40.3324881,124.619904 L40.3324881,124.619904 Z" id="Path" fill="url(#linearGradient-4)"></path>
                        <path d="M33.987152,122.806818 C33.9991071,123.442942 33.9183691,124.077367 33.7475562,124.689518 C33.2204455,126.280327 31.3995176,127.20465 29.7654744,126.961407 C28.1129577,126.641973 26.706053,125.549092 25.9702773,124.013303 C25.260611,122.496708 24.9313774,120.825482 25.0118942,119.148444 C24.9624113,118.386853 25.151985,117.628938 25.5533807,116.983582 C26.1026382,116.364771 26.8844548,116.011222 27.7049508,116.010611 C29.1622782,115.920336 30.597093,116.408796 31.7062002,117.372771 C32.2476867,117.859257 33.3019081,118.258175 33.6229664,118.78358 C34.0159035,119.508444 34.0206954,121.921414 33.987152,122.806818 Z" id="Path" fill="url(#linearGradient-5)"></path>
                        <path d="M25,117 C25,117 29.9259018,126.131798 31.7179918,123.53534 C32.780839,122.000017 33.2135212,119.990268 32.9002082,118.044108 L25,117 Z" id="Path" fill="url(#linearGradient-6)"></path>
                        <path d="M44.4965589,124 L41.4693538,126.033149 C41.2347852,126.172511 41.0220144,126.344523 40.8376738,126.543823 C40.5769691,126.915085 40.4103727,127.342168 40.351766,127.789485 C39.3995089,132.342353 38.9482621,136.982569 39.0058016,141.630174 C38.977662,142.11713 39.0520994,142.604553 39.2244601,143.061969 C39.5014598,143.5937 39.9585257,144.013945 40.5169747,144.250359 C41.6297034,144.780124 42.9076407,144.823077 44.1418463,144.856486 L49.0446552,144.985348 C49.5360539,145.028353 50.0312715,144.97647 50.5023784,144.832623 C51.6345434,144.403084 52.0767194,143.023788 51.989256,141.835398 C51.8251483,140.583942 51.4507748,139.367903 50.8813864,138.236819 L47.5480594,130.562395 C46.7414526,128.658108 46.0417455,125.436568 44.4965589,124 Z" id="Path" fill="#04C4CA"></path>
                        <path d="M76.0636095,140.928531 C77.0193312,140.911532 77.9730454,141.02509 78.9000911,141.266271 C79.8361224,141.520463 80.5922237,142.233818 80.923448,143.175237 C81.2780082,144.487039 80.3514242,145.872263 79.1648294,146.454742 C77.9782346,147.037222 76.611996,147.017642 75.2977595,146.988274 L64.7082281,146.72885 C63.4759789,146.758346 62.2458399,146.608404 61.0538943,146.283425 C59.8501952,145.944108 58.8407562,145.094467 58.2741423,143.943718 C57.5082922,142.171806 58.4301488,139.959364 60.0091235,138.906986 C62.4059505,137.316181 64.958784,138.114031 67.3697933,139.053829 C70.1544292,140.148404 73.0884616,140.781088 76.0636095,140.928531 Z" id="Path" fill="#04C4CA"></path>
                        <path d="M160,144.898964 C162.161684,139.289155 166.664787,131.438365 168.826471,125.828555 C169.836876,123.209991 170.983298,120.434508 173.33929,118.914367 C174.927764,117.894402 176.856277,117.619796 178.726498,117.364805 L188.029026,116.075137 C190.525892,115.736783 192.532129,116.565505 194.562655,118.070935 C196.59318,119.576364 198.108788,121.68985 199.420371,123.867084 C202.463189,128.900523 204.622564,134.426348 205.803411,140.20124 C206.06087,141.476196 206.21146,142.991433 205.293351,143.908421 C204.627844,144.580225 203.598008,144.702817 202.655611,144.751854 C189.194878,145.521732 173.504453,144.187931 160,144.898964 Z" id="Path" fill="#04C4CA"></path>
                        <path d="M160,144.898964 C162.161684,139.289155 166.664787,131.438365 168.826471,125.828555 C169.836876,123.209991 170.983298,120.434508 173.33929,118.914367 C174.927764,117.894402 176.856277,117.619796 178.726498,117.364805 L188.029026,116.075137 C190.525892,115.736783 192.532129,116.565505 194.562655,118.070935 C196.59318,119.576364 198.108788,121.68985 199.420371,123.867084 C202.463189,128.900523 204.622564,134.426348 205.803411,140.20124 C206.06087,141.476196 206.21146,142.991433 205.293351,143.908421 C204.627844,144.580225 203.598008,144.702817 202.655611,144.751854 C189.194878,145.521732 173.504453,144.187931 160,144.898964 Z" id="Path" fill="url(#linearGradient-7)"></path>
                        <path d="M185.712371,118.418076 C184.620159,119.729294 182.75583,120.297076 181.01594,119.848374 C180.753455,119.786397 180.509362,119.6722 180.301265,119.514019 C180.108242,119.332667 179.957217,119.117902 179.857146,118.882458 C179.086319,117.257119 179.050585,115.436739 179.019956,113.667441 C178.951515,112.948961 179.059625,112.225629 179.336455,111.549855 C180.291056,109.655174 184.798609,107.751205 186.248376,110.063831 C187.468427,112.014238 187.141719,116.63949 185.712371,118.418076 Z" id="Path" fill="url(#linearGradient-8)"></path>
                        <path d="M46.834235,89.3238891 C46.1670778,88.7848643 45.3093035,88.9300615 44.764328,89.6742663 C44.2497107,90.4260399 43.9768145,91.4169886 44.004284,92.4341607 C43.9778217,93.0270958 44.0743341,93.6182964 44.2832363,94.1429234 C44.5027084,94.6699624 44.9186301,94.9977542 45.3707461,95 C45.7072588,94.9448471 46.0188711,94.7351982 46.2520737,94.4070539 C46.7586202,93.691669 47.0274539,92.7341918 46.9977801,91.751148 C46.9681064,90.7681041 46.6424318,89.8425305 46.094405,89.1837382" id="Path" fill="#FFFFFF"></path>
                        <path d="M54.3842493,83.186334 C53.7672765,84.125212 53.8743544,85.5983686 54.8431547,86.1897061 C55.311942,86.444597 55.8431357,86.5562765 56.3728394,86.5113107 C56.9962821,86.4899197 57.6139021,86.3817114 58.208461,86.1897061 C58.3905313,86.1064089 58.5921653,86.0776197 58.7897412,86.1067114 C58.9628318,86.1824588 59.1163902,86.2978451 59.2384487,86.4438775 C60.195913,87.2761006 61.6352671,87.161143 62.4533359,86.1871125 C63.2714048,85.2130821 63.1584023,83.7488242 62.200938,82.9166011 C62.0734642,82.8128577 61.9153968,82.6883656 61.9357926,82.5223761 C61.9509843,82.4354253 61.989849,82.3545537 62.0479695,82.2889534 C62.6445289,81.3535216 62.4209611,80.1071725 61.5380746,79.4463837 C59.702453,78.1495909 59.3353287,79.9910366 58.5398927,81.002535 C57.509905,82.3252636 55.4550286,81.578311 54.3842493,83.186334 Z" id="Path" fill="#FFFFFF"></path>
                        <path d="M76.2191389,73.9909571 C76.8090204,73.9415973 77.4590939,73.7441579 77.7680794,73.1271598 C77.915656,72.7853302 77.9915178,72.4035886 77.9887833,72.0165633 C78.015679,71.3968178 77.9941789,70.7753277 77.9245785,70.1606331 C77.6878234,68.0875195 75.3042207,67.0805787 74.4294305,69.0944604 C73.5546403,71.1083421 73.9519074,74.1883965 76.2191389,73.9909571 Z" id="Path" fill="#FFFFFF"></path>
                        <path d="M93.8553425,83.1464288 C93.671438,83.0292858 93.4313404,83.2259187 93.3444966,83.3974496 C92.8049307,84.4479475 92.9034254,85.6455022 93.6101365,86.6272506 C93.6851733,86.7420182 93.791874,86.8408633 93.9217525,86.9159246 C94.0530039,86.9749007 94.2012424,87.0038061 94.3508631,86.9995982 C95.1358703,86.9527546 95.7891487,86.4875973 95.9549193,85.8574535 C96.0937767,85.2336977 95.9086272,84.5907779 95.4440734,84.0835731 C95.0322786,83.5781707 94.4292466,83.1974826 93.727631,83" id="Path" fill="#FFFFFF"></path>
                        <path d="M133.778303,87.9710942 C134.418313,87.9544733 134.934793,87.4578132 134.957952,86.8367136 C135.389936,84.4604283 132.410353,80.3852602 129.835063,82.6755262 C127.259773,84.9657921 131.230704,88.347429 133.778303,87.9710942 Z" id="Path" fill="#FFFFFF"></path>
                        <path d="M153.758121,70.4388113 C154.213923,69.4069846 154.010013,68.1084585 153.277197,67.3762142 C152.827393,66.9199092 152.198858,66.8744685 151.711002,67.2629843 C151.191774,67.7536469 151.157727,68.7026207 151.170495,69.5221889 C150.676803,69.2202427 150.055432,69.8241351 150.000105,70.5142979 C149.993916,71.2227637 150.262776,71.8898949 150.719362,72.2990156 C151.174782,72.8071297 151.774678,73.0565691 152.379188,72.9891783 C152.990062,72.9026864 153.486145,72.3243883 153.604906,71.5603258 C153.655977,71.0480956 153.494251,70.5196898 153.575114,70.0128515" id="Path" fill="#FFFFFF"></path>
                        <path d="M162.474208,78.4092533 C161.950022,78.1844533 161.354284,78.1249735 160.786383,78.2407372 C160.563901,78.2736786 160.359554,78.3694213 160.204061,78.5135727 C160.052716,78.7087752 159.982044,78.943924 160.003888,79.1796124 C160.003607,79.5315497 160.054055,79.8820909 160.154018,80.222807 C160.19994,80.4567173 160.328988,80.6716965 160.522519,80.836687 C160.945612,81.1456331 161.577977,80.9570556 162.078411,80.7564412 C162.465109,80.599962 162.90185,80.3953354 162.988289,80.026205 C163.024364,79.7944485 162.976603,79.5585618 162.851807,79.3521407 C162.622741,78.8723566 162.329502,78.4184264 161.978324,78" id="Path" fill="#FFFFFF"></path>
                        <path d="M175.271245,79.8462249 C174.865079,80.4131713 174.919841,81.1737119 175.403412,81.6817561 C175.615728,81.9153156 175.935602,82.0318669 176.256101,81.9924474 C176.639692,81.8757037 176.918645,81.5572794 176.972359,81.1748388 C177.143047,80.1954142 176.50727,79.2526295 175.505734,79" id="Path" fill="#FFFFFF"></path>
                        <path d="M98.1706653,5.05768613 C96.2019379,6.49662632 94.6527948,8.43293833 93.6825475,10.6674946 C93.4838415,11.1747131 93.1829912,11.6358615 92.7985983,12.0224267 C91.9146491,12.792496 90.5813998,12.5439293 89.4190798,12.3977136 C85.1468485,11.8480042 80.8592893,13.2949312 77.7981313,16.319447 C74.7369733,19.3439628 73.2442156,23.608162 73.752179,27.877081 C69.6254548,28.0281705 66.4901212,31.9223816 65.4840795,35.9189437 C64.3795204,40.2346699 65.1852235,44.8159706 67.6963944,48.4983667 C70.2701322,52.1456094 74.4589704,54.3175985 78.9288981,54.3226248 C78.6505274,57.4272713 80.0619159,60.419819 81.6442338,63.0955661 C82.7137635,64.9086406 83.9053856,66.6973458 85.5511916,68.0279085 C87.1969976,69.3584713 89.336057,70.1919007 91.4116283,69.8263615 C91.7241849,74.4711465 96.0120711,78.2288896 100.627165,78.8771125 C105.242259,79.5253354 109.935492,77.5416759 113.476173,74.5150112 C115.385698,76.3475811 118.384288,76.6790033 120.928695,75.9430511 C123.473101,75.2070988 125.646346,73.5548615 127.629127,71.8051471 C131.340737,72.8676478 135.198858,71.0496994 138.632097,69.2853635 C140.81511,68.1595027 143.10068,66.9459125 144.404627,64.8696497 C145.708574,62.793387 145.816016,60.2199909 145.273925,57.8707922 C144.731835,55.5215935 143.579282,53.3576013 142.441381,51.2277261 C144.419278,50.0774961 146.45578,48.8736536 147.784146,47.0118405 C149.112511,45.1500274 149.527626,42.4352895 148.135772,40.6270889 C147.779262,40.1640725 147.315311,39.7497947 147.193218,39.164932 C147.051591,38.5167091 147.408101,37.8782339 147.681588,37.2787496 C149.029489,34.3544359 148.629025,30.8501333 147.246939,27.945315 C145.864853,25.0404967 143.603701,22.6474332 141.210689,20.4931888 C139.413489,18.8799424 137.489312,17.3495515 135.247695,16.4576358 C133.006078,15.5657202 130.363998,15.3853875 128.215171,16.4576358 C127.614476,14.5812012 126.974712,12.6365326 125.621928,11.2036188 C124.269143,9.7707051 121.983573,9.00063582 120.249861,9.98028092 C120.855439,9.63423713 116.855691,5.71078287 116.450344,5.42322535 C114.712484,4.20160525 112.699582,3.4265256 110.589907,3.16662992 C107.03946,2.76209985 101.198558,2.98629724 98.1706653,5.05768613 Z" id="Path" fill="#FFFFFF"></path>
                        <path d="M125.123852,124.064078 C122.744042,126.653028 121.364723,130.00488 120.029115,133.27306 L116.231132,142.624778 C115.978366,143.056547 115.930229,143.580509 116.1,144.052146 C116.394337,144.424686 116.833895,144.649211 117.304475,144.66739 C119.248973,144.965025 121.20716,145.162158 123.171436,145.258025 C133.056553,145.884754 142.951384,146.114446 152.855929,145.947099 C154.040977,145.947099 155.284307,145.888036 156.333366,145.34662 C159.062863,143.943863 159.281417,140.099814 158.795741,137.038357 C158.236386,133.483765 157.247906,130.012353 155.852547,126.702247 C155.364384,125.385884 154.647178,124.168936 153.735001,123.109219 C151.471753,120.707304 147.872897,120.323391 144.599443,120.229874 C138.329372,120.032995 129.815478,118.950165 125.123852,124.064078 Z" id="Path" fill="#04C4CA"></path>
                        <path d="M117.532926,122.179868 C117.421088,121.797725 117.19373,121.461006 116.883048,121.217393 C116.613283,121.076814 116.313013,121.007495 116.00993,121.015827 C115.129086,120.977234 114.246619,121.009247 113.37073,121.111571 C112.809431,121.129483 112.270026,121.336944 111.837812,121.70115 C111.523292,122.084421 111.32968,122.555013 111.282191,123.051639 C110.572782,126.956971 111.38637,130.953007 111.703867,134.90873 C111.917186,137.604668 111.941991,140.451781 113.375691,142.749628 C114.687378,144.790221 116.929597,146.01442 119.328773,146 C120.320953,146 121.46196,145.626976 121.843949,144.694735 C121.99437,144.223581 122.036791,143.723738 121.967972,143.233385 C121.506608,136.13324 120.499545,128.710591 117.532926,122.179868 Z" id="Path" fill="#04C4CA"></path>
                        <path d="M117.101877,119.92874 C117.554887,118.981091 118.165259,118.116649 118.704102,117.210604 C118.85822,116.98721 118.957707,116.732662 118.994982,116.466353 C119.029599,116.191611 118.882726,115.925341 118.627806,115.800687 C118.088962,115.601911 117.6741,116.323049 117.097108,116.433994 C116.520117,116.544938 116.143403,116.115029 115.771458,115.749837 C114.178145,114.207881 112.293714,112.977462 110.220891,112.125656 C110.009297,112.000616 109.75339,111.967092 109.515149,112.033202 C109.28626,112.125656 109.224269,112.49547 109.457927,112.578679 C109.23608,112.593858 109.015158,112.538694 108.828481,112.421508 C108.623435,112.338299 108.327786,112.333677 108.237184,112.527829 C108.146582,112.721982 108.413619,112.990097 108.34686,113.248967 C108.097348,113.25876 107.848179,113.222685 107.612507,113.142646 C107.369312,113.096419 107.04982,113.175004 107.002135,113.415384 C106.995279,113.505692 107.004965,113.596464 107.030746,113.683499 C107.064119,114.04643 107.064119,114.41152 107.030746,114.774452 C107.030746,115.740592 107.636349,116.623524 108.227647,117.386266 C109.486538,119.045808 110.869411,120.622142 111.846959,122.471214 C112.107959,123.05041 112.447971,123.593026 112.857887,124.084529 C113.449185,124.6901 115.63317,125.563787 116.195857,124.50057 C116.467663,124.001321 116.243542,122.905746 116.338912,122.318666 C116.479841,121.492073 116.736533,120.688005 117.101877,119.92874 Z" id="Path" fill="#9B8F8E"></path>
                        <path d="M146.874527,134.534902 C147.071395,135.513015 147.100926,136.632299 146.480791,137.40874 C145.860657,138.18518 144.708978,138.371727 143.695108,138.417103 C138.773405,138.679278 133.723738,137.812085 128.93,138.96162 C128.238228,139.054969 127.599674,139.391841 127.123735,139.914524 C126.631565,140.595169 126.695547,141.532948 126.793981,142.379974 L127.207404,146 L122.398901,145.102556 C122.143529,145.092479 121.903309,144.975774 121.7341,144.779579 C121.564892,144.583383 121.481441,144.324794 121.503151,144.063941 C121.11916,142.17793 120.953959,140.252061 121.010981,138.326351 C121.074078,136.398878 121.809167,134.55834 123.083018,133.138318 C124.239618,131.968616 125.809641,131.348472 127.36982,130.889667 C131.085706,129.805676 134.968929,129.482999 138.8177,129.165365 C140.486158,129.029235 143.247233,128.661183 144.689291,129.810717 C145.860657,130.738412 146.579225,133.082858 146.874527,134.534902 Z" id="Path" fill="url(#linearGradient-9)"></path>
                        <path d="M191.951011,132.805645 C191.456253,133.576361 190.323257,133.644222 189.37827,133.644222 C185.234233,133.662432 181.103547,134.105954 177.053852,134.967527 C175.560635,135.220461 174.119894,135.711713 172.789039,136.421707 C171.45006,137.142311 170.470386,138.368347 170.077766,139.814795 C169.766068,141.268975 170.404306,142.94613 171.759943,143.600511 C172.600456,143.925716 173.506598,144.055147 174.406897,143.978598 L201.346462,143.692609 C201.963199,143.727657 202.580807,143.640274 203.162224,143.435704 C204.49807,142.858879 205.071989,141.220502 204.992828,139.790558 C204.072578,122.66516 195.295574,117.788809 193.836038,118.006936 C192.668409,118.17659 192.475454,127.01316 192.148914,128.278297 C191.777845,129.713088 192.881155,131.404785 191.951011,132.805645 Z" id="Path" fill="#04C4CA"></path>
                        <path d="M168.206581,139.092241 C167.144152,138.921922 166.062342,138.987918 165.022506,139.286486 C162.920245,139.847071 160.991689,141.036483 159.440784,142.72894 C159.259076,142.903384 159.116198,143.123284 159.023594,143.371027 C158.912102,143.972151 159.204589,144.575517 159.714116,144.795491 C160.213848,144.992954 160.749174,145.048556 161.272587,144.957362 L166.178172,144.568872 C166.902819,144.558658 167.620234,144.405246 168.297691,144.115633 C169.108096,143.710956 169.798618,142.906997 170.695338,142.863832 C170.955444,142.890393 171.217648,142.87036 171.472175,142.804479 C172.253808,142.475342 172.052406,141.06167 171.606444,140.538287 C170.925512,139.739724 169.132072,139.243321 168.206581,139.092241 Z" id="Path" fill="url(#linearGradient-10)"></path>
                        <path d="M40,107.212277 C40,111.561278 38.45102,116.437721 34.489346,118.288564 C31.6423453,119.616759 28.1342613,118.988623 25.5574843,117.20491 C22.9807074,115.421196 21.2483798,112.630547 20.1867863,109.691255 C18.9659538,106.306035 18.5557926,102.551606 19.5836082,99.1040514 C20.6114237,95.6564972 23.2171532,92.5877424 26.6625067,91.4944985 C36.260277,88.4688981 40.0096323,100.024678 40,107.212277 Z" id="Path" fill="url(#linearGradient-11)"></path>
                        <path d="M28.5,104.53772 C28.8320672,104.454264 26.2825063,97.5263515 26.5864935,97.3693945 C27.1417217,97.0218454 27.4289087,96.3695957 27.9362724,95.9411105 C28.4987105,95.5792378 29.1344419,95.3451567 29.7982014,95.2555342 C31.539341,94.8462687 33.1874579,94.1146244 34.6564482,93.0988254 C36.0923832,92.1037876 35.0375794,92.6187218 34.4727783,91 C34.244433,90.4233178 33.4200714,89.1904132 32.9250488,88.8139735 C31.4102393,87.5896478 32.2345037,85.7044132 30.3486432,86.2049747 C27.8022518,86.9191167 26.0408381,89.1758054 23.9108679,90.7183521 C21.3931952,92.5322727 18.0043885,93.6606171 16.8699999,96.5409898 C16.2573343,98.1025803 14.852489,98.0117756 14.1345215,99.5305176 C13.7898971,100.258942 22.7429741,118.312799 24.7676424,117.946206 C24.8872084,117.93031 25.0016863,117.888016 25.1026939,117.822421 C25.5143286,117.512959 25.1026939,116.870232 24.7437102,116.527444 C23.3710551,115.212998 22.3536983,113.575561 21.7856841,111.766497 C21.6973053,111.55221 21.6788868,111.315711 21.7330331,111.090443 C21.9002711,110.746647 22.2941362,110.574997 22.6616044,110.685762 C23.0151285,110.801957 23.3352885,111.001195 23.5949622,111.266598 C23.9975368,110.872409 26.1411914,108.846858 25.5811768,107.542358 C25.0843211,106.556907 25.9919002,105.323276 28.5,104.53772 Z" id="Path" fill="#3E3E54"></path>
                        <path d="M38.5829151,115.013023 C37.2344668,114.920775 35.8989877,115.321034 34.8352504,116.136242 C34.3572579,116.469232 33.8589253,116.996052 34.0369012,117.547721 C34.2686358,118.008241 34.7643715,118.283985 35.2878178,118.243521 C35.7982078,118.194638 36.3133236,118.226524 36.8133258,118.337951 C35.8887201,119.538124 35.2825173,120.943366 35.0488215,122.428257 C34.8250803,123.874526 35.0488215,125.564325 36.294653,126.404254 C37.1767028,126.912533 38.2125501,127.104119 39.2236284,126.945983 C40.032836,126.901785 40.8255416,126.704294 41.5576557,126.364494 C43.147073,125.473332 44.0887561,123.784366 43.9933835,121.995867 C43.9323631,120.301099 43.0628236,118.8598 41.9288626,117.632211 C40.9271124,116.553722 40.2253787,115.201883 38.5829151,115.013023 Z" id="Path" fill="url(#linearGradient-12)"></path>
                        <path d="M131.25558,107.381105 C130.701652,108.449552 130.300159,109.595433 130.063607,110.783051 C129.76941,112.955898 130.506955,115.142074 132.043898,116.652884 C133.150391,117.739344 134.670038,118.540669 135.149677,120.040082 C135.586576,121.411676 134.997712,122.989747 135.562831,124.326928 C136.12795,125.664109 137.671342,126.214713 139.001034,125.924663 C140.32373,125.556558 141.459339,124.676623 142.173298,123.466609 C142.864964,122.25384 143.445285,120.976619 143.906646,119.65171 C144.604776,117.920308 145.418817,116.241473 146.342831,114.627447 C147.031962,113.527699 147.643012,112.377581 148.171156,111.186172 C148.708534,109.768366 148.988657,108.260104 148.997465,106.737095 C149.063949,103.217161 147.824487,99.5055 145.084372,97.4210703 C142.502448,95.4976742 139.01389,95.5295102 136.465122,97.499728 C135.197166,98.4829496 134.765016,99.7955504 134.090673,101.250718 C133.144059,103.282709 132.199028,105.326172 131.25558,107.381105 Z" id="Path" fill="#9B8F8E"></path>
                        <path d="M173.033165,106.563124 C172.883946,108.325032 173.20228,110.362388 174.729292,111.340698 C175.828541,112.05306 177.261047,112.029315 178.594074,111.977075 C180.46429,111.905839 182.399168,111.815606 184.065451,111.027259 C186.617102,109.839989 188.13914,107.299231 189.298077,104.820211 C190.17899,103.129511 190.746137,101.305753 190.974308,99.4300057 C191.123527,97.5303738 190.631103,95.5547565 189.278181,94.1775234 C188.413735,93.3466586 187.344904,92.7359891 186.169444,92.4013675 C177.897717,89.8036208 173.535537,100.432062 173.033165,106.563124 Z" id="Path" fill="url(#linearGradient-13)"></path>
                        <path d="M179.122943,89.1696963 C179.152744,88.5303175 179.336796,87.9067426 179.660211,87.3494197 C180.059756,86.795204 180.642411,86.3909516 181.311089,86.2040237 C183.352708,85.5766699 185.516433,86.5129479 187.435946,87.4302153 L192.417886,89.8065555 C194.315461,90.4104767 195.802081,91.8605821 196.418092,93.7085062 C196.715703,94.3009386 196.912022,94.9366372 196.999318,95.5905676 C197.013816,96.4687884 196.7969,97.3359857 196.369249,98.1094883 C196.101974,98.7934202 195.645579,99.3921334 195.0505,99.839464 C195.563347,100.067593 195.709875,100.71871 195.646379,101.265268 C195.502583,102.227802 195.043524,103.11952 194.337399,103.807952 C193.63236,104.490024 192.854628,105.097042 192.017377,105.618723 L190.405573,106.702335 C190.122286,106.892442 189.765736,107.092054 189.428722,106.954227 C189.190316,106.825045 189.051057,106.572592 189.072171,106.307862 C189.096647,106.049075 189.167739,105.796498 189.282194,105.561691 C190.118847,103.505051 190.491946,101.297586 190.376268,99.0885405 C190.378204,98.7054356 190.301831,98.3257802 190.151592,97.9716606 C189.976971,97.6715907 189.754398,97.4004672 189.492217,97.1684576 L187.167312,94.901429 C186.590663,94.2855438 185.933884,93.7455156 185.213609,93.295023 C183.828463,92.5238309 182.150997,92.4322685 180.685904,93.0478836 C180.363544,93.1857113 179.787201,93.5516677 179.420882,93.4566141 C178.932457,93.3282917 179.064332,92.8767871 179.035026,92.4110244 C178.967889,91.3301417 178.997305,90.2456282 179.122943,89.1696963 L179.122943,89.1696963 Z" id="Path" fill="#3E3E54"></path>
                        <path d="M190.985411,106.023905 C191.049271,106.619793 190.901739,107.220277 190.577149,107.68561 C190.245613,108.204181 189.801626,108.609719 189.291126,108.860264 C189.061468,109.001398 188.795031,109.037159 188.544008,108.960539 C188.197779,108.751546 187.986138,108.327202 188.00102,107.871836 C187.976694,106.853266 188.388698,105.887718 189.099243,105.298103 C189.793288,104.768077 190.813941,104.906552 190.985411,106.023905 Z" id="Path" fill="url(#linearGradient-14)"></path>
                        <path d="M172.882134,103.311186 C173.346828,103.168466 173.825734,103.074667 174.310734,103.031379 C174.632168,102.98954 174.957842,102.98954 175.279276,103.031379 C175.680715,103.120278 176.069444,103.257261 176.436684,103.439234 C177.405227,103.875544 178.456095,104.387734 178.925838,105.336234 C179.049194,105.660145 179.191482,105.976835 179.351996,106.284734 C179.768339,106.784601 180.333891,107.144437 180.969462,107.313857 C181.487632,107.508299 181.545744,108.19122 181.981588,108.523195 C182.504601,108.921565 183.264907,108.76032 183.850875,108.471027 C184.510563,108.152357 185.093332,107.69967 185.560352,107.143127 C185.843005,106.720591 186.202484,106.352476 186.620906,106.057094 C187.069117,105.774102 187.666603,105.899182 187.957494,106.336902 C188.049913,106.679778 187.990113,107.044934 187.792842,107.342312 C187.08466,108.747984 186.121444,110.015874 184.95017,111.084145 C184.567863,111.455349 184.136203,111.774388 183.666852,112.032645 C182.951194,112.355539 182.184925,112.557573 181.400463,112.630201 C179.837666,112.848184 178.262114,112.966994 176.683663,112.985888 C175.770138,113.044477 174.853999,112.920227 173.991115,112.620716 C173.726676,112.514326 173.481414,112.367011 173.264709,112.184405 C172.743864,111.646479 172.405571,110.964017 172.296166,110.230495 C171.710198,107.73594 172.039503,105.687179 172.882134,103.311186 Z" id="Path" fill="#3E3E54"></path>
                        <path d="M177.990924,107.894333 C178.024329,108.135516 177.965047,108.37911 177.820962,108.592718 C177.505318,108.98071 176.820613,109.038909 176.242742,108.98071 C175.707354,108.922004 175.188414,108.790793 174.708226,108.592718 C174.519653,108.520915 174.353693,108.416162 174.22262,108.286205 C174.047609,108.053013 173.972591,107.780568 174.008953,107.510221 C174.014556,107.130125 174.046981,106.750584 174.106075,106.373405 C174.136394,106.091678 174.221593,105.815463 174.35859,105.554742 C174.581969,105.16675 174.951029,104.879636 175.475484,105.050353 C175.944597,105.209503 176.371451,105.438626 176.733204,105.725458 C177.471767,106.300371 177.919494,107.072454 177.990924,107.894333 L177.990924,107.894333 Z" id="Path" fill="url(#linearGradient-15)"></path>
                        <path d="M86.2573157,123.735466 C86.6587955,122.489412 87.2755367,121.311373 88.0837341,120.246822 L90.7403427,116.321516 C90.8098605,116.18617 90.9268846,116.076489 91.0724188,116.010279 C91.2496913,115.979074 91.4329413,116.019678 91.5755644,116.121767 C92.8133025,116.832502 93.1151898,118.384043 92.9642462,119.721899 C92.8133025,121.059755 92.3302827,122.383674 92.4611006,123.72153 C92.6230738,124.444135 92.7406621,125.174618 92.8133025,125.909481 C92.7604115,127.012569 92.1935397,128.040676 91.2585827,128.729198 C90.1265051,129.607166 87.5755571,130.810307 86.6195805,129.230894 C85.8195791,127.869812 85.9051138,125.166228 86.2573157,123.735466 Z" id="Path" fill="url(#linearGradient-16)"></path>
                        <path d="M89.5843137,128.163676 C88.3572705,128.50889 87.073376,129.125342 86.5475004,130.328658 C86.3290001,130.927161 86.2181889,131.562415 86.2206047,132.202674 C86.0405752,135.543026 85.9710902,138.886666 86.0121495,142.233593 C85.9538132,142.913153 86.1065965,143.594257 86.4480104,144.176652 C86.9217722,144.812831 87.7792811,144.970643 88.5562505,144.995301 C90.0167663,145.040202 91.4698794,144.762889 92.8201069,144.181583 C93.24952,144.047962 93.6180264,143.7572 93.8576453,143.362934 C93.986372,143.024884 94.0288088,142.657896 93.9808233,142.297704 C93.8150067,138.978723 93.0712007,135.630151 93.0332997,132.325965 C92.9859235,129.988376 92.6258645,127.305574 89.5843137,128.163676 Z" id="Path" fill="#04C4CA"></path>
                        <path d="M80.9547388,143.091978 C80.7661447,143.090268 80.5806211,143.135246 80.4182218,143.22205 C80.2489123,143.374135 80.143825,143.575103 80.1212214,143.790032 C79.9487695,144.587808 79.8625436,145.554679 80.5571414,146.066296 C80.9067563,146.282809 81.3097697,146.418295 81.7307723,146.460849 C82.7463222,146.634278 83.7666625,146.794701 84.7822125,146.950787 C85.1094512,147.026646 85.4540168,147.014593 85.7738108,146.916101 C86.0100819,146.784229 86.237246,146.639436 86.4540377,146.482527 C86.8560343,146.317465 87.3054759,146.271929 87.7378461,146.352455 C88.839622,146.452177 89.9413979,146.590921 91.0335932,146.786029 C91.4015276,146.868695 91.783145,146.889272 92.1593207,146.84673 C92.5417524,146.797391 92.8596695,146.555078 92.9784672,146.222383 C93.1125964,145.723773 92.5952408,145.285863 92.1162078,145.00404 C88.7054928,142.961906 84.8828094,142.849176 80.9547388,143.091978 Z" id="Path" fill="url(#linearGradient-17)"></path>
                        <path d="M76.838193,126.773836 C77.6007556,127.58574 80.1688697,128.337331 81.1921796,127.840909 C81.8711063,127.511508 81.9301434,125.734599 82.2351684,125.057239 C82.4700198,124.525897 82.6496135,123.974308 82.7714221,123.410234 C83.0137062,122.631739 83.0641881,121.811335 82.9190149,121.011638 C82.758989,120.198966 82.1177071,119.545481 81.2708957,119.332157 C80.4640553,119.192974 75.5639754,118.673356 76.0313525,119.30896 C77.9648178,121.958086 75.0129625,124.839185 76.838193,126.773836 Z" id="Path" fill="url(#linearGradient-18)"></path>
                        <path d="M77.3024466,123.777743 C77.5546732,124.493445 77.8990687,125.177816 78.3280489,125.815785 C78.77011,126.459015 79.4907052,126.889608 80.3007923,126.9946 C80.4916939,127.012563 80.684368,126.985545 80.8612307,126.916013 C81.3656253,126.695967 81.5001306,126.0987 81.5729876,125.585261 L81.9708989,122.808495 C82.0189405,122.599803 82.0073428,122.382964 81.9372725,122.179793 C81.8386941,122.008182 81.6937821,121.863682 81.5169437,121.760658 C81.092767,121.4637 80.651203,121.18909 80.194309,120.938107 C79.247168,120.414189 78.008599,119.837879 76.8653046,120.042207 C76.4809216,120.092366 76.1586917,120.339012 76.0302513,120.681387 C75.8901417,121.137196 76.2712398,121.603483 76.4673933,121.991182 C76.7700301,122.562253 77.0446449,123.164759 77.3024466,123.777743 Z" id="Path" fill="url(#linearGradient-19)"></path>
                        <path d="M87.051608,110.025848 C87.051608,110.025848 89.3820614,119.231915 86.7366819,122.436288 C84.0913023,125.640662 79.851912,125.541265 78.1610009,123.780516 C76.4700899,122.019767 70.1812572,114.314124 72.5117106,109.680325 C74.842164,105.046526 83.9459518,99.4755539 87.051608,110.025848 Z" id="Path" fill="url(#linearGradient-20)"></path>
                        <path d="M77.6863638,107.399609 C77.5135675,108.450286 77.6583428,109.556752 77.2847292,110.551641 C76.6309054,112.281074 74.5947112,113.182983 73.9222067,114.903118 C73.7587507,115.32153 73.684028,115.772484 73.4878809,116.176948 C73.3238302,116.603807 72.9490028,116.915335 72.4978048,116.999824 C72.0411503,117.007642 71.6202305,116.754789 71.4143253,116.348962 C71.2158783,115.949147 71.1059874,115.511575 71.0920836,115.065834 C70.802533,112.090465 71.1481256,108.924486 72.8153764,106.441912 C74.1099577,104.47619 76.2397727,103.211289 78.5923768,103.01094 C79.9934279,102.936555 80.4604449,103.229443 79.4797092,104.261524 C78.6017172,105.182029 77.9011917,106.083938 77.6863638,107.399609 Z" id="Path" fill="#3E3E54"></path>
                        <path d="M72.682761,118.03185 C72.5739436,118.035963 72.4686331,118.065887 72.3786845,118.118253 C72.3227318,118.161296 72.2773234,118.213352 72.2450752,118.271421 C72.0611442,118.510606 71.9767753,118.795518 72.0054998,119.080462 C72.1556784,119.517632 72.5880316,119.841838 73.1158395,119.913067 C73.6746645,120.037676 74.2630243,120.028162 74.8159032,119.885575 C74.8700111,119.875397 74.9195708,119.85223 74.9587269,119.81881 C75.0137577,119.735969 75.0137577,119.634588 74.9587269,119.551748 C74.746746,119.13084 74.4557526,118.742177 74.0971771,118.401024 C73.7364334,118.072083 73.1977122,117.931472 72.682761,118.03185 Z" id="Path" fill="url(#linearGradient-21)"></path>
                        <path d="M117.321421,144.569636 C117.069485,144.930662 116.854874,145.483141 117.125471,145.805877 C117.31687,145.971882 117.559144,146.035447 117.792634,145.98092 L126.162492,145.40109 C126.301124,145.40009 126.438522,145.370463 126.568388,145.313569 C126.983615,145.094765 127.034935,144.427414 126.983615,143.891344 C126.93696,143.04348 126.890305,142.201086 126.838985,141.358691 C126.787665,140.516297 126.950956,140.160741 126.19515,140.040399 C125.150084,139.870826 123.834421,140.270143 122.836009,140.587408 C120.693295,141.22117 118.768302,142.611257 117.321421,144.569636 L117.321421,144.569636 Z" id="Path" fill="#9B8F8E"></path>
                    </g>
                    <text id="?" transform="translate(107.500000, 50.000000) rotate(-7.000000) translate(-107.500000, -50.000000) " font-family="BugharttaRegular, Bughartta" font-size="60" font-weight="normal" fill="#B9A500">
                        <tspan x="95" y="65">?</tspan>
                    </text>
                </g>
            </g>
        </g>
    </g>
</svg>