<?xml version="1.0" encoding="UTF-8"?>
<svg width="191px" height="182px" viewBox="0 0 191 182" version="1.1" xmlns="http://www.w3.org/2000/svg" xmlns:xlink="http://www.w3.org/1999/xlink">
    <!-- Generator: sketchtool 57.1 (101010) - https://sketch.com -->
    <title>59A2FF90-E8E6-423D-A31A-000E39BC60EA</title>
    <desc>Created with sketchtool.</desc>
    <defs>
        <linearGradient x1="47.6217061%" y1="34.0778368%" x2="70.3921583%" y2="145.616258%" id="linearGradient-1">
            <stop stop-color="#010101" stop-opacity="0" offset="0%"></stop>
            <stop stop-color="#010101" stop-opacity="0.44" offset="95%"></stop>
        </linearGradient>
        <linearGradient x1="49.9933093%" y1="71.2254222%" x2="50.218562%" y2="25.0936906%" id="linearGradient-2">
            <stop stop-color="#010101" stop-opacity="0" offset="0%"></stop>
            <stop stop-color="#010101" stop-opacity="0.44" offset="95%"></stop>
        </linearGradient>
        <linearGradient x1="0.00424326405%" y1="49.8957522%" x2="100.007046%" y2="49.8957522%" id="linearGradient-3">
            <stop stop-color="#010101" stop-opacity="0" offset="0%"></stop>
            <stop stop-color="#010101" stop-opacity="0.44" offset="95%"></stop>
        </linearGradient>
        <linearGradient x1="-0.0873548301%" y1="49.8659168%" x2="99.9435729%" y2="49.8659168%" id="linearGradient-4">
            <stop stop-color="#010101" stop-opacity="0" offset="0%"></stop>
            <stop stop-color="#010101" stop-opacity="0.44" offset="95%"></stop>
        </linearGradient>
        <linearGradient x1="49.3953237%" y1="97.469019%" x2="50.6961414%" y2="-7.88447386%" id="linearGradient-5">
            <stop stop-color="#FFFFFF" stop-opacity="0" offset="0%"></stop>
            <stop stop-color="#FFFFFF" stop-opacity="0.22" offset="15%"></stop>
            <stop stop-color="#FFFFFF" stop-opacity="0.45" offset="32%"></stop>
            <stop stop-color="#FFFFFF" stop-opacity="0.65" offset="48%"></stop>
            <stop stop-color="#FFFFFF" stop-opacity="0.8" offset="64%"></stop>
            <stop stop-color="#FFFFFF" stop-opacity="0.91" offset="78%"></stop>
            <stop stop-color="#FFFFFF" stop-opacity="0.98" offset="91%"></stop>
            <stop stop-color="#FFFFFF" offset="100%"></stop>
        </linearGradient>
        <linearGradient x1="43.8716781%" y1="78.480432%" x2="74.2360676%" y2="-58.1027963%" id="linearGradient-6">
            <stop stop-color="#010101" stop-opacity="0" offset="0%"></stop>
            <stop stop-color="#010101" offset="95%"></stop>
        </linearGradient>
        <linearGradient x1="50.6247797%" y1="40.7542495%" x2="46.6104653%" y2="95.7495126%" id="linearGradient-7">
            <stop stop-color="#010101" stop-opacity="0" offset="0%"></stop>
            <stop stop-color="#010101" stop-opacity="0.44" offset="95%"></stop>
        </linearGradient>
    </defs>
    <g id="Page-1" stroke="none" stroke-width="1" fill="none" fill-rule="evenodd">
        <g id="NIBSS-LANDING-Copy" transform="translate(-229.000000, -835.000000)">
            <g id="Group-3" transform="translate(200.000000, 671.000000)">
                <g id="like" transform="translate(16.000000, 163.000000)">
                    <path d="M79.2807259,7.16591449 C70.7866794,13.7339777 66.4098344,24.2807716 59.0990197,32.1453587 C48.4054231,43.6617592 32.0219281,48.8367095 22.1220983,61.0255191 C10.675536,75.1052475 10.6236073,96.1393958 18.5056374,112.496399 C22.5523644,120.910802 28.6502738,129.518382 26.7697141,138.653488 C25.8646716,143.085445 23.1347073,146.956442 22.059042,151.347534 C20.1636456,159.078382 23.8357444,167.42963 29.7889953,172.701169 C35.7422463,177.972709 43.6242764,180.565756 51.4692146,181.84742 C77.3111457,186.063909 103.438685,177.389459 129.614443,176.925088 C137.333269,176.783919 145.089186,177.359739 152.756083,176.449572 C172.759748,174.079422 190.960747,161.192199 200.994107,143.70956 C202.544549,141.016208 203.96146,138.096243 204,134.986815 C204.05048,131.817948 202.696626,128.819968 201.431792,125.914864 C197.351682,116.568004 193.887298,106.842218 192.755995,96.7115008 C191.561636,86.0681178 192.985965,75.2872809 192.210744,64.6030332 C190.801252,45.2109008 180.49712,25.2020837 162.466744,17.9987609 C147.811732,12.1439715 130.215332,16.4904839 116.101861,9.4097551 C110.167156,6.43778078 108.201285,1.89066006 100.868215,1.15509642 C93.2866298,0.389813032 85.3415434,2.46648009 79.2807259,7.16591449 Z" id="Path" fill="#04C4CA" fill-rule="nonzero" opacity="0.24"></path>
                    <path d="M71.6966026,155.503227 C63.571599,155.45865 53.823091,156.320486 50,163.445499 C62.8084771,171.989571 79.1445225,172.996285 94.5827775,173 C101.690285,173 108.838942,172.851407 115.886597,171.885556 C125.511659,170.548223 134.844938,167.687816 144.133329,164.82741 L154.648699,161.602952 C155.647491,161.294622 156.822101,160.800552 156.971732,159.771548 C158.052822,152.501658 127.793543,155.666679 123.001586,155.792983 C105.939827,156.231331 88.7733251,155.603527 71.6966026,155.503227 Z" id="Path" fill="#04C4CA" fill-rule="nonzero" opacity="0.24"></path>
                    <path d="M97.6679218,40.8478443 C97.6679218,40.8478443 90.9486705,43.9264614 90.1577512,44.6160414 C89.4452113,45.2415621 91.3690691,87.9239305 91.5151397,90.0115117 C91.6612104,92.0990928 102.409875,92.445767 107.069886,91.5037177 C110.175078,90.8288787 113.213239,89.8460593 116.144081,88.5682922 C116.144081,88.5682922 117.615476,44.4803863 116.699863,43.7003695 C115.784249,42.9203527 106.888188,40 106.888188,40 L97.6679218,40.8478443 Z" id="Path" fill="#04C4CA" fill-rule="nonzero"></path>
                    <path d="M113,44.008026 C113,44.008026 115.125938,43.8710224 116.572757,44.7290977 C118.019576,45.587173 131.631483,57.2108482 131.971043,60.6323332 C132.310602,64.0538183 129.575672,66.2170333 128.383523,65.982685 C127.191374,65.7483367 123.518963,62.2259016 122.695901,61.1190566 C121.872838,60.0122116 114.575999,58.53762 114.575999,58.53762 L113,44.008026 Z" id="Path" fill="#04C4CA" fill-rule="nonzero"></path>
                    <path d="M89.6225681,65.8284333 C89.6257745,66.3402322 90.0246932,66.7610899 90.5330236,66.7889604 C95.0515806,67.7645546 99.4652291,65.0939126 103.991279,64.1522193 C106.044488,63.7341075 108.206351,63.6625388 110.090957,62.7396794 C112.398943,61.6096475 113.946342,59.3797179 115.385087,57.2401908 L119.131817,51.6955009 C119.727547,50.8065425 120.338264,49.6501432 119.780002,48.7385841 C119.345381,48.0304308 118.352497,47.8571592 117.561937,48.109533 C116.771377,48.3619068 116.141926,48.9419899 115.519969,49.4919387 C112.399258,52.2458093 108.971912,54.6271961 105.306382,56.5885391 C103.749605,57.4637693 102.100921,58.1623969 100.390671,58.6715646 C97.3932871,59.5002546 92.0279691,58.8034016 89.0006109,58.9352387 C88.985624,58.9503058 89.2478951,63.7680085 89.6225681,65.8284333 Z" id="Path" fill="url(#linearGradient-1)" fill-rule="nonzero"></path>
                    <path d="M129.356154,55.4802948 C130.285629,55.8714058 131.092615,56.4752283 131.701282,57.2350228 C132.756589,58.5698159 134.576085,60.5082654 134.935941,62.1092672 C135.364533,63.9652295 133.577384,66.5898226 131.519332,66.9235209 C128.945646,67.2842681 126.35868,66.3523847 124.722505,64.4751504 C123.126828,62.5695647 122.601629,60.0746129 123.307341,57.7524426 C124.144309,54.9291302 127.011026,54.4904482 129.356154,55.4802948 Z" id="Path" fill="#04C4CA" fill-rule="nonzero"></path>
                    <path d="M109.510471,159 C109.510471,159 108.675734,164.058094 109.141118,164.631412 C109.606503,165.20473 112.236295,165.018148 113.865141,164.685691 C115.493987,164.353234 115.889194,162.419556 115.889194,162.419556 L116,160.828513 L109.510471,159 Z" id="Path" fill="#BA816C" fill-rule="nonzero"></path>
                    <path d="M87.3153023,157 C87.3153023,157 85.6734599,164.219209 86.0584937,164.850845 C86.4435276,165.482482 89.327649,163.915881 90.947697,163.71961 C92.567745,163.523339 92.723938,160.953971 92.723938,160.953971 L93,159.298157 L87.3153023,157 Z" id="Path" fill="#BA816C" fill-rule="nonzero"></path>
                    <path d="M97,37.5132311 C97,37.5132311 97.5331645,42.1323713 97.1092024,43.8430223 C96.6852402,45.5536732 98.6540948,50.6741451 101.573652,50.9879558 C104.49321,51.3017665 104.942867,45.385287 104.997468,44.6887803 C105.052069,43.9922737 104.200933,43.5406925 104.621684,41.8415224 C105.042434,40.1423523 97.4496568,35.4543269 97,37.5132311 Z" id="Path" fill="#9B8F8E" fill-rule="nonzero"></path>
                    <path d="M105.664097,42.1073076 C105.298986,43.2275679 105.784584,43.7081433 106,44.1400117 C105.202837,44.7272881 104.190164,45.0325063 103.155781,44.9972544 C101.162272,44.8348978 98.3217039,43.1204125 97.2628803,40.3538567 L97.2081136,40.2012416 C97.1168357,39.2108665 97,38.4348022 97,38.4348022 C97.5111562,36.6910927 106.146045,40.6590871 105.664097,42.1073076 Z" id="Path" fill="#6C605E" fill-rule="nonzero"></path>
                    <path d="M95.8217682,42.6212754 C95.8217682,42.6212754 97.8121011,49.6376203 99.909182,50.5741823 C99.909182,50.5741823 100.467026,50.9913065 98.817598,51.9042577 C97.1681699,52.8172089 93.2047214,46.997145 94.1413487,43.1249726 C94.3520426,42.1221919 95.0043713,41.317088 95.86309,41 L95.8217682,42.6212754 Z" id="Path" fill="#FFFFFF" fill-rule="nonzero"></path>
                    <path d="M104.978515,41.1037548 C104.978515,41.1037548 105.326734,45.2120685 103,47.8439569 C103,47.8439569 103.743922,48.9480662 104.464101,48.9994202 C105.184281,49.0507741 107.372518,45.680673 106.945159,43.0006402 C106.691909,41.4471841 105.386089,40.7121811 104.978515,41.1037548 Z" id="Path" fill="#FFFFFF" fill-rule="nonzero"></path>
                    <g id="Group"></g>
                    <path d="M91.0631383,89.4765645 L89.6703807,118.13091 L87,157.855742 C87,157.855742 88.5338904,159.710817 92.9424327,159.770779 L100.89415,119.360131 L104.630455,98.8231429 L107.854225,118.842959 L109.194986,160.565275 C109.194986,160.565275 112.318477,160.628985 116.370474,161 L119,119.854818 L116.400186,88 L91.0631383,89.4765645 Z" id="Path" fill="#606161" fill-rule="nonzero"></path>
                    <path d="M91.0631383,89.4765645 L89.6703807,118.13091 L87,157.855742 C87,157.855742 88.5338904,159.710817 92.9424327,159.770779 L100.89415,119.360131 L104.630455,98.8231429 L107.854225,118.842959 L109.194986,160.565275 C109.194986,160.565275 112.318477,160.628985 116.370474,161 L119,119.854818 L116.400186,88 L91.0631383,89.4765645 Z" id="Path" fill="url(#linearGradient-2)" fill-rule="nonzero"></path>
                    <path d="M108.991032,29.0014903 C108.991032,29.0014903 108.876356,37.7726629 107.988537,40.0529468 C107.100718,42.3332306 104.903367,44.1714562 102.88358,43.9872653 C100.863792,43.8030743 97.9894796,41.858018 96.9166988,38.7230882 C95.8439179,35.5881584 95.8365194,28.1468443 96.2656318,27.1816838 C96.6947441,26.2165233 99.0104711,23.2215786 104.337383,24.1904229 C108.010733,24.8608779 109.113107,27.6605802 108.991032,29.0014903 Z" id="Path" fill="#9B8F8E" fill-rule="nonzero"></path>
                    <path d="M97,33.5098644 C97,33.5098644 96.8573488,31.566613 95.5666953,32.0892565 C94.2760417,32.6118999 95.512352,36.2668961 96.1033354,36.6492326 C96.364489,36.8506244 96.6751888,36.9721675 97,37" id="Path" fill="#9B8F8E" fill-rule="nonzero"></path>
                    <path d="M127.409623,60.9967574 C127.409623,60.9967574 125.58382,58.3098307 129.641582,55.5164548 C133.699345,52.7230788 146.206668,45 146.206668,45 L147,49.4598578 C147,49.4598578 134.936792,64.4765476 131.793829,63.9883492 C129.932993,63.699632 128.314654,62.5953473 127.409623,60.9967574 L127.409623,60.9967574 Z" id="Path" fill="#9B8F8E" fill-rule="nonzero"></path>
                    <path d="M146,45.034999 C146.268716,44.4448478 146.561282,43.8721113 146.876567,43.3190036 C147.075343,42.9733647 147.326256,42.6927873 147.52829,42.3634137 C147.831341,41.8673203 147.714031,40.895465 147.736842,40.273315 C147.736075,39.5830141 147.867932,38.902542 148.121358,38.2889412 C148.167129,38.1735038 148.24137,38.0794349 148.333168,38.0205628 C148.458128,37.9713479 148.594653,38.0119856 148.688357,38.1262876 C148.780938,38.2410992 148.852138,38.3799265 148.896908,38.5329216 C149.131333,39.1920728 149.274566,39.8960235 149.320528,40.6148876 C149.349856,41.1475781 149.476942,41.5704775 149.910337,41.3508951 C150.323426,41.1460256 150.752679,40.9960972 151.190973,40.9035977 C151.585265,40.8182046 152.82028,40.4969637 152.970176,41.2289049 C153.2439,42.546399 151.546162,47.3731444 151.438628,47.7350487 C151.331093,48.0969529 146.677792,50 146.677792,50 L146,45.034999 Z" id="Path" fill="#9B8F8E" fill-rule="nonzero"></path>
                    <path d="M79.5751946,164.545373 C79.2692159,164.798202 78.9445799,165.116702 79.0080145,165.48117 C79.0714491,165.845639 79.4557883,166.059066 79.8214702,166.213391 C82.3588547,167.283811 85.344013,167.103219 88.1052844,166.604127 C89.1277011,166.420251 90.1986267,166.164138 90.9150646,165.494304 C91.3138266,165.096809 91.6002207,164.622034 91.750909,164.108668 C91.9725725,163.439883 92.0472918,162.740041 91.9710644,162.04663 C91.9817243,161.769635 91.8434622,161.504407 91.5979196,161.330827 C91.4363085,161.263215 91.257872,161.232716 91.0792484,161.242173 C89.2396446,161.206054 86.5828537,160.670844 84.8925078,161.317693 C82.9131463,162.102262 81.1116338,163.195804 79.5751946,164.545373 L79.5751946,164.545373 Z" id="Path" fill="#606161" fill-rule="nonzero"></path>
                    <path d="M111.283873,162.079174 C110.844686,161.967514 110.383799,161.974065 109.947959,162.098162 C109.413549,162.353236 109.056068,162.874593 109.010542,163.465308 C108.972108,164.047217 109.038964,164.631289 109.207893,165.189432 C109.281199,165.66985 109.468613,166.125661 109.754403,166.518602 C110.154902,166.914014 110.670517,167.171985 111.226945,167.255341 C112.274987,167.464136 113.339041,167.582299 114.407332,167.608521 L121.124856,167.969296 C121.623562,168.055175 122.136515,167.959524 122.570832,167.699664 C123.040085,167.241371 123.135683,166.521577 122.80234,165.956553 C122.462459,165.416588 121.994405,164.969109 121.439859,164.653966 C120.149487,163.7995 118.32399,162.375389 116.767954,162.139936 C116.027887,162.018412 115.105651,162.288044 114.346609,162.291841 C113.32178,162.298923 112.297902,162.227828 111.283873,162.079174 L111.283873,162.079174 Z" id="Path" fill="#606161" fill-rule="nonzero"></path>
                    <path d="M79.5751946,164.545373 C79.2692159,164.798202 78.9445799,165.116702 79.0080145,165.48117 C79.0714491,165.845639 79.4557883,166.059066 79.8214702,166.213391 C82.3588547,167.283811 85.344013,167.103219 88.1052844,166.604127 C89.1277011,166.420251 90.1986267,166.164138 90.9150646,165.494304 C91.3138266,165.096809 91.6002207,164.622034 91.750909,164.108668 C91.9725725,163.439883 92.0472918,162.740041 91.9710644,162.04663 C91.9817243,161.769635 91.8434622,161.504407 91.5979196,161.330827 C91.4363085,161.263215 91.257872,161.232716 91.0792484,161.242173 C89.2396446,161.206054 86.5828537,160.670844 84.8925078,161.317693 C82.9131463,162.102262 81.1116338,163.195804 79.5751946,164.545373 L79.5751946,164.545373 Z" id="Path" fill="url(#linearGradient-3)" fill-rule="nonzero"></path>
                    <path d="M111.283873,162.079174 C110.844686,161.967514 110.383799,161.974065 109.947959,162.098162 C109.413549,162.353236 109.056068,162.874593 109.010542,163.465308 C108.972108,164.047217 109.038964,164.631289 109.207893,165.189432 C109.281199,165.66985 109.468613,166.125661 109.754403,166.518602 C110.154902,166.914014 110.670517,167.171985 111.226945,167.255341 C112.274987,167.464136 113.339041,167.582299 114.407332,167.608521 L121.124856,167.969296 C121.623562,168.055175 122.136515,167.959524 122.570832,167.699664 C123.040085,167.241371 123.135683,166.521577 122.80234,165.956553 C122.462459,165.416588 121.994405,164.969109 121.439859,164.653966 C120.149487,163.7995 118.32399,162.375389 116.767954,162.139936 C116.027887,162.018412 115.105651,162.288044 114.346609,162.291841 C113.32178,162.298923 112.297902,162.227828 111.283873,162.079174 L111.283873,162.079174 Z" id="Path" fill="url(#linearGradient-4)" fill-rule="nonzero"></path>
                    <path d="M168.26216,72.4162119 C168.207352,72.1097034 168.281565,71.7946283 168.468092,71.5419286 C170.268562,69.5617374 171.171691,66.9585319 170.972968,64.3218055 C170.733056,59.5667577 166.654649,55.8568404 161.762214,55.943257 L140.839574,56.2747561 C140.837249,56.0811642 140.848508,55.8876435 140.873272,55.6955434 C141.180297,53.7247631 141.468601,51.7576256 141.798092,49.7977739 C142.262253,47.1981843 142.153775,44.5323327 141.479834,41.976581 C140.55127,38.4503049 139.091028,35.1243855 137.514717,31.8312516 C136.713456,30.1482562 135.57896,28.8769026 133.822926,28.1119047 C130.299626,26.578266 126.866186,26.5163376 123.571282,28.6510461 C121.463293,30.0134709 120.246425,31.8057517 120.41117,34.421316 C120.583404,37.3355937 120.508519,40.2170858 120.590892,43.1240778 C120.646715,43.8306995 120.537927,44.5404684 120.272634,45.2005007 C119.98433,45.8307133 119.523792,46.3407119 119.242977,46.9891387 C118.98501,47.5028266 118.698787,48.0026208 118.385553,48.4863489 C117.808945,49.5136318 117.228592,50.533629 116.618286,51.5390548 C114.82481,54.5298323 113.132428,57.5861811 110.915856,60.3146736 C110.032223,61.4075278 109.07745,62.4493821 108.122676,63.4948792 C107.864326,63.7790213 107.568533,63.9538779 107.134205,63.6296645 C106.200385,62.9781384 105.06512,62.6579658 103.91793,62.7225956 C95.7206081,62.8440238 87.5257828,62.9715235 79.3334536,63.1050945 C76.0460381,63.1560944 73.7583264,65.6186591 74.0204211,68.813436 C74.2787715,71.7277138 74.5708198,74.6419915 74.8516354,77.5271265 C75.095009,80.1754764 75.3159174,82.8238262 75.6004772,85.4612476 C75.9075024,88.6341675 76.2482254,91.8070874 76.5664832,94.9763644 C76.7911357,97.1329299 76.9708577,99.2858526 77.2029987,101.442418 C77.282646,101.756013 77.4087746,102.056663 77.5774196,102.334916 L77.2554176,102.385916 C77.4201628,103.47877 77.3827207,104.680909 77.7983279,105.693621 C79.0526379,108.720827 81.4751411,109.19804 84.197181,108.939398 C84.2533441,108.939398 84.2832978,108.779112 84.3244841,108.691684 C84.6798983,108.811073 85.0478357,108.89171 85.4215373,108.932112 C91.9289725,108.837398 98.4476403,108.746327 104.955075,108.618827 C106.977302,108.662637 108.816629,107.485083 109.575429,105.660835 C109.864113,104.911604 110.098083,104.143483 110.275596,103.362199 C110.568711,103.479171 110.853851,103.614231 111.129276,103.766555 C111.975467,104.24741 112.84038,104.761052 113.630408,105.289265 C113.79682,105.409117 113.974895,105.512826 114.162085,105.598907 C114.545085,105.721208 114.940506,105.803036 115.341511,105.842977 C115.797046,105.946574 116.262832,106.001541 116.730613,106.006906 C121.860179,105.955906 126.978513,105.864835 132.081869,105.784692 C138.368396,105.682692 144.688621,105.60255 150.990125,105.464121 L153.015742,105.416764 C153.94231,105.392072 154.849599,105.153599 155.662897,104.720981 C157.078295,103.910601 158.413229,102.974005 159.65048,101.923274 C162.645847,99.3732809 163.978785,96.2076467 162.997803,92.3061574 C162.980585,91.9728247 163.083917,91.644154 163.289851,91.3772314 C163.799063,90.648662 164.371927,89.9638067 164.866163,89.2279516 C164.985978,89.0530949 164.903605,88.7543814 164.907349,88.5175964 C165.397841,88.7871671 165.356654,88.3063112 165.431538,88.1132403 C166.217822,86.2226026 166.18038,84.2773223 165.742308,82.3211133 C165.679365,82.0160232 165.749917,81.6992129 165.937007,81.44683 C168.456859,78.8676942 169.089631,75.8295597 168.26216,72.4162119 Z M104.262397,72.7039968 L104.764121,102.45513 C104.782842,103.464198 104.782842,103.464198 103.723231,103.47877 C97.0248409,103.588055 90.3301953,103.682769 83.6355497,103.810269 C82.8867079,103.832126 82.6620553,103.620841 82.5946596,102.914128 C82.3051074,99.5141377 81.9868496,96.114147 81.6398863,92.7141563 C81.347838,89.7343073 81.0108592,86.7544583 80.7300435,83.7746094 C80.4754373,81.2246163 80.2657616,78.6746233 80.0261322,76.0991304 C79.8089681,73.7640653 79.591804,71.4253575 79.3334536,69.0902924 C79.2548252,68.4272943 79.4869661,68.2815804 80.1347143,68.2852232 C85.6723993,68.2160091 91.1988517,68.1176522 96.7365368,68.0302239 C98.6086413,68.0010811 100.480746,67.979224 102.375315,67.9828669 C102.501348,67.9738652 102.628031,67.9861906 102.749736,68.0192954 C102.970104,68.1030837 103.155747,68.2555191 103.27767,68.4527942 C103.690265,68.9054693 103.951455,69.469615 104.026512,70.0702183 C104.036198,70.2558011 104.07017,70.4394246 104.127605,70.6166454 C104.161303,70.7660021 104.195001,70.9044303 104.232443,71.0647156 C104.285252,71.6107833 104.297764,72.1598313 104.269885,72.7076397 L104.262397,72.7039968 Z M162.960361,69.4254344 C162.634614,69.625791 162.271426,69.7715049 161.956913,69.9791471 C161.267978,70.4308602 161.208071,70.8716447 161.814633,71.4107861 C163.52948,72.9808532 164.330741,76.0481305 161.926959,78.1719104 C161.159411,78.8273633 160.322216,79.4013205 159.429572,79.8840486 C158.557171,80.3721901 158.444845,80.8785459 159.234873,81.4650443 C160.045774,82.0201048 160.580768,82.8801376 160.710091,83.8365378 C160.76251,84.2008225 160.867348,84.5651072 160.94972,84.9293919 C160.526625,87.4283851 158.852963,88.8818811 156.610182,89.8727355 C155.741526,90.2370202 155.662897,90.6523048 156.366809,91.2388032 C157.171844,91.8566101 157.744447,92.715955 157.99554,93.6831536 C158.482287,95.6175055 157.535002,96.9617161 156.198319,98.178427 C155.913759,98.440712 155.599246,98.6592829 155.314686,98.9069965 C154.052887,99.9998506 152.626344,100.400564 150.904008,100.404207 C143.535405,100.436992 136.166801,100.597278 128.786965,100.724777 C128.547336,100.724777 128.303962,100.786706 128.060589,100.812206 C127.794068,100.771691 127.525213,100.747359 127.255584,100.739349 L123.047093,100.80492 L120.920382,100.841348 C120.291411,100.910164 119.655973,100.900371 119.029557,100.812206 C118.905761,100.790346 118.778932,100.790346 118.655136,100.812206 C118.230929,100.893304 117.802052,100.949264 117.370872,100.979777 C116.976054,100.97202 116.585709,100.896804 116.217656,100.757563 C115.501193,100.445729 114.814562,100.072698 114.165829,99.6428516 C113.540547,99.2785669 112.937729,98.8778537 112.293725,98.5499975 C112.045559,98.4058849 111.762726,98.327981 111.473743,98.3241409 C110.578877,98.3241409 109.695244,98.3241409 108.804122,98.3569266 C108.264956,98.3860693 108.107699,98.2075698 108.096467,97.6829998 C108.096467,94.8051506 108.01035,91.9163728 107.961675,89.0421664 C107.860582,82.947683 107.770721,76.8604854 107.643417,70.7660021 C107.643417,70.0556469 107.766976,69.6148624 108.489609,69.2724348 C111.271556,67.9500813 113.24101,65.7607301 115.045719,63.3819509 C117.408309,60.1951948 119.559364,56.86493 121.485758,53.4114782 L122.710114,51.2986269 C123.694841,49.5682745 124.668336,47.8342792 125.634342,46.0784269 C125.806373,45.7218578 125.893407,45.33209 125.888948,44.9382157 C125.884159,44.7806821 125.855131,44.6247363 125.802831,44.4755741 C125.777944,44.3128278 125.76792,44.1482568 125.772877,43.9837898 L125.754156,42.8035073 C125.754156,42.0215094 125.744172,41.2382973 125.724203,40.4538709 L125.645574,35.7400266 C125.626853,35.2045281 125.61562,34.6690296 125.608132,34.1408167 C125.579926,33.7441558 125.755135,33.3595853 126.076158,33.1135338 C127.989449,31.4742526 130.479348,31.8531087 132.254103,33.0588911 C132.744594,33.3940331 132.924316,34.1772452 133.220109,34.7710293 C134.568745,37.5043887 135.662692,40.3499227 136.488803,43.2734346 C137.087877,45.4591429 136.949341,47.6448512 136.567432,49.8305595 C135.970854,53.2014074 135.369285,56.5746839 134.762723,59.9503889 C134.68035,60.4130305 134.624187,60.8866006 134.556791,61.4075278 C134.713134,61.4285531 134.870734,61.4395055 135.028562,61.4403134 C143.921058,61.2982423 152.824787,61.1889569 161.724772,61.0068146 C164.394393,60.9412433 166.217822,63.2508084 165.787238,65.717016 C165.483957,67.4291541 164.431835,68.5730081 162.967849,69.4327201 L162.960361,69.4254344 Z" id="Shape" fill="#04C4CA" fill-rule="nonzero"></path>
                    <path d="M168.262833,72.4410706 C168.204314,72.1350039 168.277398,71.8189808 168.465019,71.5667958 C170.265547,69.5850282 171.169784,66.9812239 170.973629,64.3431 C170.739682,59.5820561 166.661355,55.8625546 161.762913,55.9427761 L140.832873,56.2815576 C140.834848,56.085559 140.847346,55.8897947 140.870315,55.6950649 C141.181083,53.7243037 141.461897,51.7644709 141.798875,49.8046382 C142.261777,47.2035969 142.152026,44.536589 141.476874,41.9798785 C140.548314,38.4536367 139.084334,35.1204639 137.515517,31.827362 C136.710516,30.144383 135.583514,28.8766845 133.823743,28.1189796 C130.292969,26.5780703 126.867032,26.5124996 123.564653,28.654473 C121.456672,30.0132418 120.247298,31.8018624 120.408298,34.4283297 C120.584275,37.3170794 120.501903,40.2167576 120.584275,43.1273642 C120.641248,43.8330791 120.536381,44.542295 120.277252,45.2037669 C119.98146,45.8339734 119.528413,46.3403242 119.24011,46.9960303 C118.980023,47.5062696 118.693859,48.0035279 118.38269,48.4859403 C117.806084,49.5168561 117.225734,50.5368434 116.611686,51.5422594 C114.825706,54.5330079 113.133331,57.589327 110.916768,60.317793 C110.029394,61.4106365 109.078369,62.4488379 108.1236,63.4943249 C108.024722,63.658311 107.853902,63.7690207 107.660268,63.7946134 C107.466634,63.8202061 107.271648,63.7578453 107.131389,63.6254661 C106.197153,62.9808135 105.066325,62.6624335 103.922615,62.7220488 C95.7178395,62.8410473 87.5180562,62.9624744 79.3232651,63.08633 C76.047096,63.1409721 73.7519055,65.6071557 74.0214874,68.794616 C74.2760925,71.7088655 74.5718838,74.6231149 74.8526983,77.5373643 C75.0960709,80.17476 75.3094899,82.826727 75.5790718,85.4641228 C75.8860957,88.6406546 76.2230731,91.8026153 76.5450737,94.9755043 C76.7734695,97.1320489 76.9494466,99.2849507 77.1890749,101.441495 C77.2699537,101.757 77.395992,102.059885 77.5634943,102.34127 L77.2414936,102.381341 C77.402494,103.50697 77.3762846,104.679955 77.7918901,105.699942 C79.0387064,108.71619 81.4574553,109.200684 84.183228,108.938402 C84.2356467,108.938402 84.2618561,108.781761 84.318019,108.690691 C84.6685927,108.812693 85.0332769,108.892219 85.403835,108.927473 C91.9149872,108.836403 98.4411161,108.745333 104.941036,108.62512 C106.963756,108.666226 108.801716,107.485699 109.557626,105.659871 C109.854145,104.913224 110.088292,104.144528 110.25779,103.361257 C110.550746,103.481193 110.836955,103.616167 111.11521,103.765609 C111.961398,104.250103 112.822563,104.760097 113.612587,105.29559 C113.784235,105.408363 113.96448,105.508223 114.151751,105.594301 C114.534692,105.71754 114.93008,105.800582 115.331172,105.842012 C115.78546,105.946445 116.249827,106.003835 116.716524,106.013224 C121.842324,105.962225 126.960637,105.871154 132.090181,105.791013 C138.372938,105.685371 144.681903,105.608872 150.994613,105.463159 L153.020222,105.426731 C153.946224,105.396733 154.851889,105.154606 155.663622,104.720026 C157.073642,103.919701 158.40363,102.992819 159.636212,101.951489 C162.631566,99.4015206 163.971987,96.2432028 163.005986,92.3381086 C162.98621,92.0038959 163.09126,91.6739909 163.301777,91.4091916 C163.799754,90.6806292 164.37636,89.9994234 164.874338,89.252647 C164.994152,89.0850777 164.915524,88.7827243 164.915524,88.5495843 C165.409758,88.8227952 165.357339,88.3383013 165.435967,88.1452322 C166.154555,86.2939056 166.263166,84.2708944 165.746735,82.3568043 C165.686854,82.0507141 165.760059,81.7341679 165.948921,81.4825295 C168.450043,78.8815619 169.079067,75.8507425 168.262833,72.4410706 Z M103.720429,103.50697 C97.0220669,103.608968 90.3349376,103.700039 83.6328316,103.83118 C82.883993,103.856679 82.6555972,103.634468 82.5882017,102.931405 C82.303643,99.5326619 81.9816424,96.1521325 81.6334324,92.7533891 C81.3526179,89.7772119 81.0044079,86.7973919 80.7198492,83.8212146 C80.4802208,81.2457467 80.2630576,78.6994213 80.0234293,76.1385246 C79.8062661,73.7998394 79.592847,71.4611543 79.3382419,69.1224691 C79.2558696,68.4704058 79.4842654,68.3283361 80.1320109,68.3283361 C85.673417,68.2481943 91.1923579,68.157124 96.7375082,68.0660537 C98.6096048,68.040554 100.481701,68.0150543 102.376263,68.0259827 C102.501539,68.0091787 102.629035,68.0176536 102.750683,68.0514824 C102.965687,68.1422764 103.14813,68.293154 103.27487,68.484977 C103.696303,68.9340302 103.964441,69.4990534 104.042429,70.1023855 C104.051361,70.2886763 104.082778,70.473299 104.136034,70.65245 C104.173476,70.8090909 104.214662,70.9402322 104.240872,71.1078015 C104.296472,71.646472 104.30524,72.1887474 104.267081,72.7288528 L104.780035,102.472411 C104.780035,103.477827 104.780035,103.477827 103.720429,103.50697 Z M165.772944,65.7273685 C165.465921,67.4504185 164.417546,68.5869758 162.953567,69.4503222 C162.631566,69.647034 162.268379,69.7891036 161.946379,70.0003867 C161.261191,70.4557382 161.19754,70.9001612 161.811588,71.4356546 C163.51894,73.0020636 164.323942,76.072954 161.920169,78.1894276 C161.151539,78.8466809 160.314553,79.4241542 159.422793,79.9124776 C158.550395,80.3969716 158.441814,80.9069652 159.235583,81.4934579 C160.042177,82.0474269 160.57319,82.9049602 160.699562,83.8576428 C160.751981,84.2219239 160.860563,84.6044192 160.939191,84.9504863 C160.523585,87.4567408 158.846187,88.9065799 156.603415,89.9010675 C155.731018,90.2653487 155.65239,90.6697008 156.363787,91.2598363 C157.167037,91.8763224 157.737259,92.7347608 157.985022,93.7005202 C158.471767,95.6457817 157.531975,96.9790508 156.18781,98.2066784 C155.906995,98.4689608 155.596227,98.6766011 155.315412,98.9352407 C154.053619,100.028084 152.615849,100.425151 150.897264,100.425151 C143.524948,100.465222 136.167608,100.621863 128.784059,100.753004 C128.540686,100.753004 128.301058,100.814932 128.057685,100.829503 C127.814313,100.844074 127.507289,100.763932 127.252684,100.763932 L123.036722,100.829503 L120.917509,100.869574 C120.287063,100.94031 119.649637,100.926828 119.022947,100.829503 C118.898865,100.810998 118.772609,100.810998 118.648527,100.829503 C118.22322,100.912285 117.793069,100.969464 117.360525,101.000715 C116.969375,100.992741 116.582759,100.917511 116.218546,100.778504 C115.503073,100.470947 114.815461,100.105377 114.162984,99.68566 C113.533959,99.3213788 112.9274,98.9133839 112.290887,98.5928164 C112.047845,98.4408383 111.763471,98.3634205 111.474653,98.3706049 C110.587279,98.3451052 109.699905,98.3451052 108.801299,98.3961046 C108.262135,98.4216043 108.101135,98.2394637 108.101135,97.7148988 C108.101135,94.8443631 108.00753,91.9556134 107.970088,89.0814349 C107.861506,82.9797251 107.767902,76.8925866 107.648087,70.8054481 C107.648087,70.1023855 107.767902,69.6579624 108.490531,69.3046097 C111.272467,67.9859118 113.245656,65.8038676 115.042869,63.414183 C117.411791,60.2314068 119.565501,56.9021397 121.49037,53.44745 C121.890999,52.7407445 122.306604,52.0486103 122.710977,51.3419048 C123.691956,49.6042835 124.672934,47.8666623 125.638936,46.1181127 C125.809212,45.7622611 125.896172,45.3740714 125.893541,44.9815554 C125.888404,44.8219765 125.860686,44.6638479 125.811169,44.5116327 C125.78568,44.3513364 125.773161,44.189341 125.773727,44.0271387 L125.773727,42.8395821 C125.773727,42.0563775 125.773727,41.273173 125.747518,40.4863257 L125.665146,35.7834556 C125.638936,35.2479623 125.638936,34.6906121 125.627704,34.1769756 C125.577827,33.7810704 125.742157,33.3882595 126.06203,33.1387743 C127.967825,31.4922234 130.465201,31.8710758 132.239949,33.0732037 C132.734183,33.4119852 132.91016,34.1951897 133.205951,34.7816824 C134.558157,37.5105715 135.654654,40.3525468 136.48212,43.2730767 C137.084935,45.4587637 136.938912,47.6444508 136.560748,49.8301379 C135.957933,53.1997388 135.355118,56.5584112 134.748559,59.9425834 C134.669931,60.4125061 134.613768,60.8824288 134.546372,61.3997081 C134.702445,61.4235279 134.86016,61.4357061 135.018141,61.4361362 C143.906855,61.2940666 152.806803,61.188425 161.710495,61.0062844 C162.941788,60.9778422 164.119398,61.4964104 164.910022,62.4152172 C165.700647,63.334024 166.018252,64.5530859 165.772944,65.7273685 Z" id="Shape" fill="url(#linearGradient-5)" fill-rule="nonzero" opacity="0.54"></path>
                    <path d="M104.954833,105.668537 C98.3778896,105.774715 91.8119752,105.866247 85.2350318,105.998053 C84.499767,106.023682 84.271835,105.800343 84.2056611,105.090055 C83.9299368,101.677742 83.613773,98.2764127 83.2681985,94.8640996 C82.9924743,91.8691724 82.6505761,88.8779065 82.3711755,85.8829793 C82.1358908,83.2981155 81.9263403,80.7388807 81.6873793,78.1650007 C81.4778288,75.8144588 81.264602,73.4639169 81.014612,71.1133751 C80.9374092,70.4580059 81.161665,70.3115547 81.7939927,70.3115547 C87.2386283,70.2346678 92.6538534,70.1431358 98.098489,70.0516038 C99.9366509,70.0223136 101.774813,69.9966846 103.638709,70.0113297 C103.761526,69.9900446 103.8877,69.9988406 104.006341,70.0369587 C104.21638,70.1281534 104.395217,70.2782715 104.521027,70.4689898 C104.934291,70.9221109 105.197429,71.4909762 105.274673,72.0982594 C105.283443,72.2854948 105.31429,72.4710535 105.366581,72.6511127 C105.409442,72.8016336 105.443808,72.9544259 105.469518,73.1087728 C105.52721,73.6499571 105.537051,74.1951427 105.498929,74.7380424 L105.998909,104.632395 C106.006262,105.631925 106.006262,105.631925 104.954833,105.668537 Z" id="Path" fill="#FFFFFF" fill-rule="nonzero"></path>
                    <path d="M76.6616317,75.6805133 C79.6203378,77.0461087 82.6349144,78.2773832 85.7053615,79.3743369 C86.4755892,79.6828414 87.281406,79.8885012 88.1029337,79.986243 C89.9539469,80.124295 91.699292,79.1989736 93.3353253,78.3035012 C94.166095,77.8445716 95.1280388,77.1393871 94.9859335,76.1842165 C94.8268281,75.5438546 94.3193269,75.0562039 93.685123,74.9342863 C93.0643147,74.8264203 92.4335218,74.7913701 91.80496,74.8298146 C89.5458495,74.7925032 87.432488,73.7739034 85.4466569,72.6433695 C83.1948338,71.3561279 81.0013103,69.863674 79.365277,67.8264743 C79.1634015,67.5114767 78.8861942,67.2545924 78.5600134,67.0802473 C78.2673491,66.9845679 77.9544469,66.9742322 77.6563691,67.0503982 C73.2438161,67.8973658 72.7191194,73.8671817 76.6616317,75.6805133 Z" id="Path" fill="url(#linearGradient-6)" fill-rule="nonzero"></path>
                    <path d="M165.919103,66.6845237 C165.609375,68.4584802 164.568242,69.6286163 163.109163,70.5174698 C162.78824,70.7162429 162.426269,70.8662604 162.105346,71.0800352 C161.422452,71.5525902 161.359014,72.0101435 161.971006,72.5614577 C163.672643,74.1741453 164.47495,77.3357633 162.079224,79.5147669 C161.31222,80.1902346 160.478165,80.7846773 159.590207,81.2887233 C158.72073,81.7875314 158.612512,82.308842 159.403624,82.9164127 C160.208531,83.4852173 160.73705,84.3691535 160.858971,85.350446 C160.914946,85.7254896 161.019433,86.1005333 161.101529,86.4755769 C160.687315,89.0596277 159.015531,90.5523014 156.780266,91.5724201 C155.910789,91.9474637 155.828693,92.3675126 156.537708,92.9713329 C157.338659,93.6079615 157.907988,94.4926209 158.157249,95.4878758 C158.638633,97.4906088 157.701986,98.8632686 156.366052,100.127166 C156.082446,100.397197 155.77645,100.610972 155.492843,100.877253 C154.235274,102.002384 152.806048,102.407431 151.093216,102.407431 C143.745576,102.448686 136.412863,102.609955 129.054029,102.74497 C128.811471,102.74497 128.572644,102.812478 128.330087,102.82748 C128.064029,102.790714 127.796216,102.76818 127.527779,102.759972 C126.120943,102.786225 124.729034,102.797476 123.32593,102.82748 L121.210078,102.864984 C120.583254,102.940967 119.94893,102.928343 119.32559,102.82748 C119.202077,102.806497 119.075936,102.806497 118.952424,102.82748 C118.527248,102.911706 118.09728,102.969323 117.665001,103 C117.281366,102.990374 116.902415,102.912933 116.545503,102.771223 C115.829518,102.453135 115.1438,102.070264 114.496821,101.62734 C113.86617,101.252297 113.265373,100.835998 112.630991,100.502209 C112.385731,100.349484 112.10226,100.270129 111.813757,100.273433 C110.933085,100.24718 110.048682,100.24718 109.153083,100.299686 C108.615724,100.329689 108.455263,100.138417 108.455263,99.6021046 C108.455263,96.6430102 108.361971,93.6726645 108.320923,90.7135701 C108.216436,84.4328392 108.109462,78.1608593 108,71.8976304 C108,71.1700457 108.119413,70.7124925 108.843355,70.3524506 C111.612247,68.9910421 113.582564,66.7445307 115.373761,64.2842444 C117.735191,61.0084938 119.880516,57.5807531 121.795949,54.0230502 C122.198968,53.299216 122.613183,52.5828826 123.016202,51.8590484 C123.990165,50.0700902 124.96786,48.281132 125.930629,46.477172 C126.102149,46.111424 126.188909,45.7113461 126.184382,45.3070359 C126.180471,45.1429173 126.154102,44.9801207 126.106017,44.8232296 C126.07939,44.6595535 126.065664,44.4940198 126.064969,44.3281719 L126.064969,43.1017792 C126.064969,42.2954354 126.064969,41.4890915 126.035115,40.6827477 L125.95675,35.8409342 C125.930629,35.2896201 125.930629,34.7158033 125.915702,34.1869917 C125.884896,33.7794278 126.06195,33.3839942 126.385891,33.1368695 C128.285307,31.4416723 130.774324,31.8317176 132.5394,33.0693617 C133.03571,33.4181523 133.211098,34.2282465 133.502168,34.8320668 C134.833417,37.6405786 135.910006,40.5640016 136.718859,43.5668333 C137.323388,45.8170952 137.174122,48.0673571 136.800956,50.317619 C136.200159,53.7867727 135.59563,57.2409247 134.994832,60.7250802 C134.912736,61.2088865 134.860492,61.6926928 134.793323,62.2252548 C134.948793,62.250905 135.105971,62.264696 135.263512,62.2665096 C144.118742,62.1202425 152.992631,62.0114799 161.862788,61.8239581 C163.091252,61.7923468 164.26706,62.3252409 165.056758,63.2715136 C165.846456,64.2177863 166.163915,65.4742306 165.919103,66.6845237 Z" id="Path" fill="#FFFFFF" fill-rule="nonzero"></path>
                    <polygon id="Path" fill="#9B8F8E" fill-rule="nonzero" points="76.988417 65 89.4324324 72.2647059 92 78 73 70.5112894"></polygon>
                    <path d="M89.3807797,73.1045545 C89.8770749,72.698576 90.4095462,72.334574 90.9721535,72.0166778 C91.4910798,71.7925092 96.9744004,73.892441 96.9986169,74.456159 C97.0228335,75.019877 96.7287753,77.0571735 96.1371994,77.2483761 C95.5456235,77.4395786 91.6848122,78 91.6848122,78 C91.6848122,78 87.7928655,74.1924313 89.3807797,73.1045545 Z" id="Path" fill="#9B8F8E" fill-rule="nonzero"></path>
                    <path d="M89.2492671,44 C89.2492671,44 84.2081995,45.8988999 82.855532,49.2561551 C81.5028646,52.6134102 70.0756824,67.9489261 72.281864,70.5845993 C73.3982909,71.917627 75.9092989,73 75.9092989,73 L83.2746684,68.4084599 L81.7010018,66.88934 L88.982544,56.6086957 C88.982544,56.6086957 91.0820363,46.6888423 89.2492671,44 Z" id="Path" fill="#04C4CA" fill-rule="nonzero"></path>
                    <path d="M87.7620319,94.5993897 C91.005094,94.6587471 94.2857349,94.681006 97.4536391,93.9835577 C100.621543,93.2861093 103.710532,91.7873374 105.739794,89.2869108 L106.953594,91.045371 C117.56541,93.8145493 128.565591,94.8459818 139.51574,94.0985625 C141.060979,94.0227036 142.597065,93.8191879 144.107886,93.4901501 C146.674527,92.874318 149.042,91.6352343 151.37941,90.429539 L159.894796,86 C161.17248,86.2374292 161.661006,87.8549158 161.473111,89.1014193 C161.285217,90.3479227 160.687712,91.6018458 160.822996,92.874318 C160.939491,93.9650085 161.574575,94.9258549 161.852659,95.9905766 C162.341185,97.8900104 161.567059,99.9563866 160.236764,101.410641 C158.90647,102.864895 157.080134,103.799772 155.219977,104.493511 C150.402357,106.292779 145.175128,106.693441 140.026814,106.908611 C135.630078,107.090393 131.229585,107.14975 126.83285,107.212817 C124.247419,107.246206 121.613136,107.275884 119.140442,106.530208 C116.885706,105.851309 114.860201,104.552868 112.658076,103.703317 C112.008437,103.400386 111.286897,103.279742 110.572445,103.354592 C110.050812,103.477882 109.558254,103.699596 109.121898,104.007523 C106.611625,105.584201 104.293005,107.513314 101.542227,108.641103 C97.6302601,110.24375 93.2372827,110.073098 89.0058947,109.876476 C85.6237906,109.720664 81.6441814,109.238385 79.9380978,106.337297 C79.4565726,105.412679 79.1219662,104.420447 78.946014,103.395401 C78.5364036,101.573873 75.6465835,93.7498383 77.7735512,92.9151262 C78.7956982,92.5181742 81.1180764,93.9130709 82.2078655,94.1356608 C84.0413258,94.4550805 85.9002735,94.6102879 87.7620319,94.5993897 L87.7620319,94.5993897 Z" id="Path" fill="url(#linearGradient-7)" fill-rule="nonzero"></path>
                </g>
            </g>
        </g>
    </g>
</svg>