<?xml version="1.0" encoding="UTF-8"?>
<svg width="219px" height="168px" viewBox="0 0 219 168" version="1.1" xmlns="http://www.w3.org/2000/svg" xmlns:xlink="http://www.w3.org/1999/xlink">
    <!-- Generator: sketchtool 57.1 (101010) - https://sketch.com -->
    <title>561E9AFB-9231-4FDD-963E-E08704CF1DC4</title>
    <desc>Created with sketchtool.</desc>
    <defs>
        <linearGradient x1="49.2032541%" y1="51.0881519%" x2="54.3952342%" y2="44.045248%" id="linearGradient-1">
            <stop stop-color="#010101" stop-opacity="0" offset="0%"></stop>
            <stop stop-color="#010101" offset="95%"></stop>
        </linearGradient>
        <linearGradient x1="67.4696841%" y1="51.8635133%" x2="17.1749581%" y2="47.7726862%" id="linearGradient-2">
            <stop stop-color="#010101" stop-opacity="0" offset="0%"></stop>
            <stop stop-color="#010101" offset="95%"></stop>
        </linearGradient>
        <linearGradient x1="57.6404826%" y1="51.4713573%" x2="-5.83679312%" y2="44.013378%" id="linearGradient-3">
            <stop stop-color="#010101" stop-opacity="0" offset="0%"></stop>
            <stop stop-color="#010101" offset="95%"></stop>
        </linearGradient>
        <linearGradient x1="47.4857295%" y1="73.2810287%" x2="66.7516262%" y2="-86.9238313%" id="linearGradient-4">
            <stop stop-color="#010101" stop-opacity="0" offset="0%"></stop>
            <stop stop-color="#010101" offset="95%"></stop>
        </linearGradient>
        <linearGradient x1="34.6752766%" y1="53.775958%" x2="333.998186%" y2="-16.3069795%" id="linearGradient-5">
            <stop stop-color="#010101" stop-opacity="0" offset="0%"></stop>
            <stop stop-color="#010101" offset="95%"></stop>
        </linearGradient>
        <linearGradient x1="64.4954081%" y1="76.8912143%" x2="6.21729758%" y2="-19.6680061%" id="linearGradient-6">
            <stop stop-color="#010101" stop-opacity="0" offset="0%"></stop>
            <stop stop-color="#010101" offset="95%"></stop>
        </linearGradient>
        <linearGradient x1="56.0440091%" y1="63.1346634%" x2="-2.16066671%" y2="-33.3647569%" id="linearGradient-7">
            <stop stop-color="#010101" stop-opacity="0" offset="0%"></stop>
            <stop stop-color="#010101" offset="95%"></stop>
        </linearGradient>
        <linearGradient x1="79.7517826%" y1="38.6857078%" x2="11.5787629%" y2="64.1243339%" id="linearGradient-8">
            <stop stop-color="#010101" stop-opacity="0" offset="0%"></stop>
            <stop stop-color="#010101" offset="95%"></stop>
        </linearGradient>
        <linearGradient x1="46.5225872%" y1="-33.6526801%" x2="53.348657%" y2="130.539049%" id="linearGradient-9">
            <stop stop-color="#FFFFFF" stop-opacity="0" offset="0%"></stop>
            <stop stop-color="#FFFFFF" stop-opacity="0.22" offset="14%"></stop>
            <stop stop-color="#FFFFFF" stop-opacity="0.45" offset="30%"></stop>
            <stop stop-color="#FFFFFF" stop-opacity="0.65" offset="45%"></stop>
            <stop stop-color="#FFFFFF" stop-opacity="0.8" offset="60%"></stop>
            <stop stop-color="#FFFFFF" stop-opacity="0.91" offset="73%"></stop>
            <stop stop-color="#FFFFFF" stop-opacity="0.98" offset="85%"></stop>
            <stop stop-color="#FFFFFF" offset="94%"></stop>
        </linearGradient>
        <linearGradient x1="23.5120472%" y1="97.9820253%" x2="118.721221%" y2="-73.722896%" id="linearGradient-10">
            <stop stop-color="#010101" stop-opacity="0" offset="0%"></stop>
            <stop stop-color="#010101" offset="95%"></stop>
        </linearGradient>
        <linearGradient x1="52.4072602%" y1="33.9342764%" x2="36.6924748%" y2="142.402997%" id="linearGradient-11">
            <stop stop-color="#FFFFFF" stop-opacity="0" offset="0%"></stop>
            <stop stop-color="#FFFFFF" stop-opacity="0.22" offset="14%"></stop>
            <stop stop-color="#FFFFFF" stop-opacity="0.45" offset="30%"></stop>
            <stop stop-color="#FFFFFF" stop-opacity="0.65" offset="45%"></stop>
            <stop stop-color="#FFFFFF" stop-opacity="0.8" offset="60%"></stop>
            <stop stop-color="#FFFFFF" stop-opacity="0.91" offset="73%"></stop>
            <stop stop-color="#FFFFFF" stop-opacity="0.98" offset="85%"></stop>
            <stop stop-color="#FFFFFF" offset="94%"></stop>
        </linearGradient>
        <linearGradient x1="124.691662%" y1="6.94606131%" x2="-344.39751%" y2="264.221964%" id="linearGradient-12">
            <stop stop-color="#FFFFFF" stop-opacity="0" offset="0%"></stop>
            <stop stop-color="#FFFFFF" stop-opacity="0.22" offset="14%"></stop>
            <stop stop-color="#FFFFFF" stop-opacity="0.45" offset="30%"></stop>
            <stop stop-color="#FFFFFF" stop-opacity="0.65" offset="45%"></stop>
            <stop stop-color="#FFFFFF" stop-opacity="0.8" offset="60%"></stop>
            <stop stop-color="#FFFFFF" stop-opacity="0.91" offset="73%"></stop>
            <stop stop-color="#FFFFFF" stop-opacity="0.98" offset="85%"></stop>
            <stop stop-color="#FFFFFF" offset="94%"></stop>
        </linearGradient>
        <linearGradient x1="52.2564491%" y1="37.8736942%" x2="46.7577237%" y2="166.604417%" id="linearGradient-13">
            <stop stop-color="#FFFFFF" stop-opacity="0" offset="0%"></stop>
            <stop stop-color="#FFFFFF" stop-opacity="0.22" offset="14%"></stop>
            <stop stop-color="#FFFFFF" stop-opacity="0.45" offset="30%"></stop>
            <stop stop-color="#FFFFFF" stop-opacity="0.65" offset="45%"></stop>
            <stop stop-color="#FFFFFF" stop-opacity="0.8" offset="60%"></stop>
            <stop stop-color="#FFFFFF" stop-opacity="0.91" offset="73%"></stop>
            <stop stop-color="#FFFFFF" stop-opacity="0.98" offset="85%"></stop>
            <stop stop-color="#FFFFFF" offset="94%"></stop>
        </linearGradient>
        <linearGradient x1="36.8739903%" y1="131.588751%" x2="124.941662%" y2="-126.270724%" id="linearGradient-14">
            <stop stop-color="#010101" stop-opacity="0" offset="0%"></stop>
            <stop stop-color="#010101" offset="95%"></stop>
        </linearGradient>
        <linearGradient x1="50.3001072%" y1="53.0210731%" x2="49.624866%" y2="46.2335819%" id="linearGradient-15">
            <stop stop-color="#FFFFFF" stop-opacity="0" offset="0%"></stop>
            <stop stop-color="#FFFFFF" stop-opacity="0.22" offset="14%"></stop>
            <stop stop-color="#FFFFFF" stop-opacity="0.45" offset="30%"></stop>
            <stop stop-color="#FFFFFF" stop-opacity="0.65" offset="45%"></stop>
            <stop stop-color="#FFFFFF" stop-opacity="0.8" offset="60%"></stop>
            <stop stop-color="#FFFFFF" stop-opacity="0.91" offset="73%"></stop>
            <stop stop-color="#FFFFFF" stop-opacity="0.98" offset="85%"></stop>
            <stop stop-color="#FFFFFF" offset="94%"></stop>
        </linearGradient>
        <linearGradient x1="48.9920806%" y1="45.8340636%" x2="55.7955364%" y2="73.952112%" id="linearGradient-16">
            <stop stop-color="#010101" stop-opacity="0" offset="0%"></stop>
            <stop stop-color="#010101" offset="95%"></stop>
        </linearGradient>
        <linearGradient x1="49.7870819%" y1="79.5702702%" x2="50.9226382%" y2="-138.466394%" id="linearGradient-17">
            <stop stop-color="#010101" stop-opacity="0" offset="0%"></stop>
            <stop stop-color="#010101" offset="95%"></stop>
        </linearGradient>
    </defs>
    <g id="Page-1" stroke="none" stroke-width="1" fill="none" fill-rule="evenodd">
        <g id="NIBSS-LANDING-Copy" transform="translate(-476.000000, -843.000000)" fill-rule="nonzero">
            <g id="Group-3" transform="translate(200.000000, 671.000000)">
                <g id="complete_task_1" transform="translate(276.000000, 172.000000)">
                    <path d="M218.996936,101.810823 C218.918605,112.011773 217.583067,122.409349 213.415874,131.517059 C210.767221,137.276878 207.026453,142.463463 202.402579,146.787024 C191.549861,157.094152 176.486869,162.674394 161.921277,164.424365 C141.328137,166.897918 120.49609,163.38618 99.7854545,164.475487 C86.8608902,165.159745 74.0264062,167.621501 61.0861757,167.96363 C48.1459453,168.305759 34.7004819,166.30804 23.7146022,158.816595 C19.5409512,155.935967 15.8409396,152.418554 12.7483052,148.391491 C8.73620378,143.195579 5.60532317,137.370645 3.48178425,131.151335 C-4.77427077,107.233765 2.04441604,78.0269584 19.7824014,61.4002751 C26.7812488,54.8329711 35.1195511,50.2279933 43.4030218,45.7763836 C60.7336876,36.4995752 89.83354,-28.1549425 158.016492,14.3162448 C171.332709,22.633519 178.229727,39.6652517 190.00283,50.4442817 C200.487393,60.0396241 212.377992,69.426543 216.81151,83.587538 C218.644448,89.4115962 219.040018,95.6642987 218.996936,101.810823 Z" id="Path" fill="#04C4CA" opacity="0.24"></path>
                    <path d="M202,146.700921 C191.127499,157.049886 176.037048,162.652778 161.444903,164.409851 C140.814224,166.893445 119.944201,163.367453 99.195812,164.461181 C86.2476871,165.148217 73.3898067,167.619965 60.4259871,167.963483 C47.4621675,168.307 33.992194,166.301173 22.9862878,158.77932 C18.8050285,155.887 15.0982721,152.355309 12,148.311901 C13.0565856,148.040914 14.1283629,147.833906 15.2095655,147.69199 C36.9702627,144.73063 58.993846,144.375267 80.9507269,144.031749 L140.892698,143.080166 C147.535478,142.973557 154.209648,142.866948 160.828887,143.514498 C169.296175,144.335782 177.610441,146.369249 186.081654,147.135254 C191.453164,147.628814 196.706963,146.839118 202,146.700921 Z" id="Path" fill="#04C4CA" opacity="0.24"></path>
                    <path d="M163.985821,147.697232 C123.431307,145.471284 82.7849678,145.434834 42.226471,147.588046 C35.3743662,147.950701 28.4005334,148.403046 22,150.863644 C25.1413661,153.714195 29.8141482,153.940367 34.0706993,154.010558 C65.2618469,154.509697 96.4556124,154.64748 127.651996,154.423908 C129.481841,154.423908 132.010641,153.616706 131.649384,151.830725 C131.539436,151.292591 131.142839,150.809051 131.174252,150.270917 C131.233153,149.276539 132.51326,148.917783 133.530277,148.870988 C136.236913,148.73203 138.95076,148.875801 141.627148,149.299936 C142.597045,149.459816 143.633696,149.689888 144.273749,150.430797 C144.776368,151.007926 144.945216,151.79173 145.3104,152.458548 C146.511972,154.638381 149.511977,155.114123 151.985803,154.634482 C154.459629,154.154841 156.760679,152.996682 159.261992,152.871898 C161.464875,152.758812 163.616711,153.464625 165.768547,153.959864 C172.80128,155.574266 180.132443,154.97764 187.322245,154.373214 C194.782989,153.745391 194.940058,148.625318 187.502873,148.215869 C179.696579,147.79862 171.807823,148.130079 163.985821,147.697232 Z" id="Path" fill="url(#linearGradient-1)"></path>
                    <path d="M192.260621,94.6845976 L189,76 L193.478123,76 C193.478123,76 194.50539,90.9476781 195,95 L192.260621,94.6845976 Z" id="Path" fill="#F5C7C8"></path>
                    <path d="M194.645166,93.5892477 C194.645166,93.5892477 195.239257,96.5838543 194.890004,98.25345 C194.54075,99.9230458 193.089729,101.867489 192.268804,101.982351 C191.447879,102.097212 190.943802,101.637766 191.005011,101.001925 C191.06622,100.366083 193.165341,98.1057708 192.841291,97.3878857 C192.517242,96.6700005 191.689115,98.8523714 191.401071,98.3231875 C191.113027,97.7940036 191.235446,96.9735634 191.959157,95.9357066 C192.682867,94.8978498 191.959157,93.4497729 191.959157,93.4497729 C191.959157,93.4497729 194.133888,92.350383 194.645166,93.5892477 Z" id="Path" fill="#F5C7C8"></path>
                    <path d="M185.718376,37.4728186 C186.724169,36.7323789 188.768596,36.9860101 189.782599,37.391002 C191.265146,37.9937516 192.382914,39.2481365 192.808188,40.7863885 C192.99073,41.4980303 193.043569,42.2365498 192.964189,42.9667994 C192.816399,44.5744945 192.122607,46.1985528 190.813024,47.1558064 C188.070699,49.15213 186.379325,47.2989853 185.566481,44.8076716 C185.048556,43.3985875 184.882304,41.885126 185.082058,40.39776 C185.229848,39.2727825 184.712583,38.385073 185.587007,37.5791801 L185.718376,37.4728186 Z" id="Path" fill="#606161"></path>
                    <path d="M185.718376,37.4728186 C186.724169,36.7323789 188.768596,36.9860101 189.782599,37.391002 C191.265146,37.9937516 192.382914,39.2481365 192.808188,40.7863885 C192.99073,41.4980303 193.043569,42.2365498 192.964189,42.9667994 C192.816399,44.5744945 192.122607,46.1985528 190.813024,47.1558064 C188.070699,49.15213 186.379325,47.2989853 185.566481,44.8076716 C185.048556,43.3985875 184.882304,41.885126 185.082058,40.39776 C185.229848,39.2727825 184.712583,38.385073 185.587007,37.5791801 L185.718376,37.4728186 Z" id="Path" fill="url(#linearGradient-2)"></path>
                    <ellipse id="Oval" fill="#606161" cx="180.5" cy="42" rx="7.5" ry="9"></ellipse>
                    <path d="M157,67.5921641 C157,67.5921641 155.730517,65.3865128 155.181652,65.0593412 C154.632787,64.7321696 153.658272,63.8241765 153.374505,64.0300373 C152.862978,64.3976458 155.065905,66.3239146 153.10194,66.1805473 C152.792037,66.1548147 151.216384,66.1805473 150.454694,66.8826796 C150.152403,67.1652605 149.987219,67.5615874 150.000773,67.9717725 C150.014328,68.3819576 150.205328,68.7668753 150.525636,69.0295135 C151.040896,69.3750655 152.810705,69.5368132 153.766552,69.5074046 C154.722398,69.4779959 155.84253,69.614011 156.492207,70" id="Path" fill="#F5C7C8"></path>
                    <path d="M171.308779,57 C171.308779,57 170.335729,59.984654 170.239625,61.5980861 C170.143521,63.2115182 169.366683,69.9894955 169.106402,70.3215578 C168.846121,70.6536201 156.384672,66.5204212 156.384672,66.5204212 C156.384672,66.5204212 155.63186,67.5556742 156.232508,69.5050752 C156.232508,69.5050752 165.486495,77.6738076 171.088541,77.99415 C176.690587,78.3144925 175.969809,65.3718764 175.969809,65.3718764" id="Path" fill="#F5C7C8"></path>
                    <path d="M181.931658,142.700293 L180.922231,144.940768 C181.519246,144.740244 184.378633,146.996144 185.666929,147 C186.514135,146.965092 187.329382,146.672687 188,146.163196 L187.190888,142.102576 L185.749411,122 L178,123.102884 L181.931658,142.700293 Z" id="Path" fill="#F5C7C8"></path>
                    <path d="M167.424143,142.39807 L166,143.763026 C166.601221,143.716887 168.701738,146.592907 169.896665,146.912038 C170.690876,147.084935 171.517938,147.001651 172.263974,146.673651 L172.496947,142.551868 L174,124 L166.691404,124.734385 L167.424143,142.39807 Z" id="Path" fill="#F5C7C8"></path>
                    <path d="M182.70504,48 L183,54.5268926 C182.331453,55.540838 181.188819,56.0988296 180.013068,55.9855247 C176.988799,55.635453 177.119477,54.7019285 177.119477,54.7019285 C177.119477,54.7019285 177.119477,49.9915191 177,48.9374143" id="Path" fill="#F5C7C8"></path>
                    <path d="M182.262327,50.237985 L183,49 L177,49.6189925 C177.047337,49.9852603 177.078895,50.8789536 177.094675,51.8165991 C179.003233,52.3425009 181.0629,51.7133141 182.262327,50.237985 L182.262327,50.237985 Z" id="Path" fill="#DBB4AF"></path>
                    <path d="M187.737395,95.9175575 C187.737395,95.9175575 188.707651,114.173787 190,128.949626 C190,128.949626 172.249085,131.492684 165,128.664867 C165,128.664867 166.558772,99.2239283 166.884842,95 L187.737395,95.9175575 Z" id="Path" fill="#606161"></path>
                    <path d="M187.737395,95.9175575 C187.737395,95.9175575 188.707651,114.173787 190,128.949626 C190,128.949626 172.249085,131.492684 165,128.664867 C165,128.664867 166.558772,99.2239283 166.884842,95 L187.737395,95.9175575 Z" id="Path" fill="url(#linearGradient-3)"></path>
                    <path d="M188,57.4276081 C188,57.4276081 187.968524,56.1459044 183.471451,56.1070649 C180.194057,56.0759933 179.049133,55.8118846 176.71994,56.2507711 C172.470738,57.0508649 171.998604,57.3110896 171.34942,57.8548427 C169.811051,59.1637341 167.202513,94.3639791 167.202513,94.3639791 C167.202513,94.3639791 164.593975,98.5897174 178.100931,99.9491001 C183.097679,100.454014 187.937049,97.0361371 187.937049,97.0361371 L188,57.4276081 Z" id="Path" fill="#04C4CA"></path>
                    <path d="M185,37.6678306 C185,37.6678306 184.736953,46.2045239 182.28316,49.1242398 C179.695879,52.2068243 178.223603,52.5842025 175.082747,51.3249509 C172.41302,50.2484298 172.095008,42.8557884 172.004708,40.7265806 C171.77307,35.2009685 180.143451,30.4420301 185,37.6678306 Z" id="Path" fill="#F5C7C8"></path>
                    <polygon id="Path" fill="url(#linearGradient-4)" points="187.784946 63 188 97.215103 184.606452 99 184 68.7783589"></polygon>
                    <path d="M184.943426,53.6717179 L184.99964,55.2865511 C185.007813,55.5490137 184.876175,55.7927733 184.662354,55.9111176 C184.662354,55.9111176 182.353816,56.7698965 178.355099,57 L175.41696,56.178202 C175.201238,56.0795884 175.055744,55.854661 175.042197,55.5988343 L175.000973,54.7975812 C174.98282,54.4405962 175.220626,54.1295096 175.544379,54.0867259 L184.24262,53.0060615 C184.418418,52.9801216 184.595911,53.0382068 184.729981,53.1655524 C184.86405,53.2928979 184.941786,53.4772392 184.943426,53.6717179 Z" id="Path" fill="#04C4CA"></path>
                    <path d="M184.943426,53.6717179 L184.99964,55.2865511 C185.007813,55.5490137 184.876175,55.7927733 184.662354,55.9111176 C184.662354,55.9111176 182.353816,56.7698965 178.355099,57 L175.41696,56.178202 C175.201238,56.0795884 175.055744,55.854661 175.042197,55.5988343 L175.000973,54.7975812 C174.98282,54.4405962 175.220626,54.1295096 175.544379,54.0867259 L184.24262,53.0060615 C184.418418,52.9801216 184.595911,53.0382068 184.729981,53.1655524 C184.86405,53.2928979 184.941786,53.4772392 184.943426,53.6717179 Z" id="Path" fill="url(#linearGradient-5)"></path>
                    <path d="M184.374279,42.8705934 C184.374279,42.8705934 184.485906,41.5831807 185.533231,42.1394701 C186.580556,42.6957595 185.595611,44.9209172 185.1885,45.544756 C184.78139,46.1685949 184,45.9699201 184,45.9699201" id="Path" fill="#F5C7C8"></path>
                    <polygon id="Path" fill="#4EAE93" points="186.336815 37.0335484 187 39 185.913838 39 185 36"></polygon>
                    <path d="M187.46124,56.0500518 C187.46124,56.0500518 189.248036,57.7940527 192.536502,65.9813874 C193.8785,69.3273439 195,75.5576096 195,75.5576096 C195,75.5576096 190.415157,78 187.712152,78 C186.503213,70.7201772 183.598718,67.8989992 183.058878,64.5412056 C182.519037,61.183412 185.826511,55.4029565 187.46124,56.0500518 Z" id="Path" fill="#04C4CA"></path>
                    <path d="M163.156226,144.55564 C161.755906,144.934374 160.51918,145.732616 159.627386,146.833321 C159.2725,147.266754 159.056149,147.789195 159.004413,148.337668 C158.960723,148.895544 159.244037,149.430551 159.739923,149.726591 C160.078485,149.870579 160.446816,149.938992 160.817063,149.926658 C164.251322,150.065223 167.69116,150.007409 171.118221,149.753523 C171.409714,149.768755 171.693436,149.660397 171.893923,149.457271 C171.98479,149.28371 172.018429,149.087818 171.990383,148.895546 L171.893923,146.833321 C171.910637,146.60271 171.848569,146.373149 171.717079,146.179257 C171.335257,145.732954 170.591709,146.106156 169.992851,146.075376 C168.787097,146.013817 168.481639,144.578724 167.488902,144.182438 C166.355493,143.728441 164.289634,144.22476 163.156226,144.55564 Z" id="Path" fill="#04C4CA"></path>
                    <path d="M179.154711,144.559049 C177.754703,144.934544 176.518624,145.73288 175.630318,146.83532 C175.274036,147.267819 175.056498,147.790094 175.004116,148.338735 C174.96193,148.895903 175.246566,149.429345 175.742713,149.722954 C176.080569,149.868044 176.448417,149.937726 176.818496,149.926741 C180.248483,150.065863 183.684107,150.006798 187.106674,149.749869 C187.354578,149.80413 187.614103,149.731009 187.791857,149.556819 C187.96961,149.382629 188.040015,149.132433 187.977737,148.896268 L187.881398,146.831475 C187.898091,146.602215 187.836065,146.374016 187.704777,146.181661 C187.323436,145.735635 186.580825,146.108605 185.978708,146.077845 C184.774473,146.016324 184.473414,144.58212 183.481928,144.182234 C182.329876,143.728518 180.270635,144.22453 179.154711,144.559049 Z" id="Path" fill="#04C4CA"></path>
                    <path d="M163.156226,144.55564 C161.755906,144.934374 160.51918,145.732616 159.627386,146.833321 C159.2725,147.266754 159.056149,147.789195 159.004413,148.337668 C158.960723,148.895544 159.244037,149.430551 159.739923,149.726591 C160.078485,149.870579 160.446816,149.938992 160.817063,149.926658 C164.251322,150.065223 167.69116,150.007409 171.118221,149.753523 C171.409714,149.768755 171.693436,149.660397 171.893923,149.457271 C171.98479,149.28371 172.018429,149.087818 171.990383,148.895546 L171.893923,146.833321 C171.910637,146.60271 171.848569,146.373149 171.717079,146.179257 C171.335257,145.732954 170.591709,146.106156 169.992851,146.075376 C168.787097,146.013817 168.481639,144.578724 167.488902,144.182438 C166.355493,143.728441 164.289634,144.22476 163.156226,144.55564 Z" id="Path" fill="url(#linearGradient-6)"></path>
                    <path d="M179.154711,144.559049 C177.754703,144.934544 176.518624,145.73288 175.630318,146.83532 C175.274036,147.267819 175.056498,147.790094 175.004116,148.338735 C174.96193,148.895903 175.246566,149.429345 175.742713,149.722954 C176.080569,149.868044 176.448417,149.937726 176.818496,149.926741 C180.248483,150.065863 183.684107,150.006798 187.106674,149.749869 C187.354578,149.80413 187.614103,149.731009 187.791857,149.556819 C187.96961,149.382629 188.040015,149.132433 187.977737,148.896268 L187.881398,146.831475 C187.898091,146.602215 187.836065,146.374016 187.704777,146.181661 C187.323436,145.735635 186.580825,146.108605 185.978708,146.077845 C184.774473,146.016324 184.473414,144.58212 183.481928,144.182234 C182.329876,143.728518 180.270635,144.22453 179.154711,144.559049 Z" id="Path" fill="url(#linearGradient-7)"></path>
                    <path d="M172.830494,36.1038926 C172.701756,36.3410685 172.580819,36.5903043 172.459883,36.8556197 C172.130991,37.5561202 171.974247,38.3291879 172.003445,39.1067811 C172.003445,39.4283756 172.608127,40.9639892 172.54961,41.0886071 C173.353859,39.4351441 174.545943,38.014709 176.017754,36.956118 C176.571721,38.2465158 177.917626,38.937944 179.138693,39.5449536 C180.359761,40.1519632 181.713468,40.8956504 182.189411,42.2222276 C182.521011,43.1307321 182.396174,44.2321932 182.969646,45 C184.385772,44.8030234 184.693965,42.4473438 186.090586,42.1860483 C186.344162,42.1378091 186.609442,42.1860483 186.87082,42.1136895 C187.518751,41.9173951 187.970606,41.3138863 187.990457,40.6182752 C188.208923,37.5751874 184.627645,34.7491758 182.236225,33.7321333 C179.999497,32.7559556 177.474248,32.7559556 175.237519,33.7321333 C174.191791,34.2100209 173.340562,35.0487784 172.830494,36.1038926 L172.830494,36.1038926 Z" id="Path" fill="#606161"></path>
                    <path d="M172.830494,36.1038926 C172.701756,36.3410685 172.580819,36.5903043 172.459883,36.8556197 C172.130991,37.5561202 171.974247,38.3291879 172.003445,39.1067811 C172.003445,39.4283756 172.608127,40.9639892 172.54961,41.0886071 C173.353859,39.4351441 174.545943,38.014709 176.017754,36.956118 C176.571721,38.2465158 177.917626,38.937944 179.138693,39.5449536 C180.359761,40.1519632 181.713468,40.8956504 182.189411,42.2222276 C182.521011,43.1307321 182.396174,44.2321932 182.969646,45 C184.385772,44.8030234 184.693965,42.4473438 186.090586,42.1860483 C186.344162,42.1378091 186.609442,42.1860483 186.87082,42.1136895 C187.518751,41.9173951 187.970606,41.3138863 187.990457,40.6182752 C188.208923,37.5751874 184.627645,34.7491758 182.236225,33.7321333 C179.999497,32.7559556 177.474248,32.7559556 175.237519,33.7321333 C174.191791,34.2100209 173.340562,35.0487784 172.830494,36.1038926 L172.830494,36.1038926 Z" id="Path" fill="url(#linearGradient-8)"></path>
                    <rect id="Rectangle" fill="#04C4CA" x="32" y="22" width="85" height="129" rx="15.98"></rect>
                    <rect id="Rectangle" fill="#04C4CA" x="34" y="22" width="85" height="129" rx="15.98"></rect>
                    <rect id="Rectangle" fill="url(#linearGradient-9)" x="34" y="22" width="85" height="129" rx="15.98"></rect>
                    <path d="M41,95.9069861 L43.2247795,28 L107.546503,29.3486018 C107.546503,29.3486018 99.1356553,99.8355217 105.073651,118.027964 C111.011647,136.220407 112,143.045505 112,143.045505 L42.4844989,145 L41,95.9069861 Z" id="Path" fill="url(#linearGradient-10)"></path>
                    <path d="M123,137.259721 L52.961761,138 C52.961761,138 45.761055,96.2192708 44.509952,82.212719 C43.2823806,68.7192708 43,28 43,28 L109.881067,28 C109.881067,28 110.049711,67.4619712 111.234141,80.5363196 C112.544073,94.9619712 123,137.259721 123,137.259721 Z" id="Path" fill="#FFFFFF"></path>
                    <path d="M154.843678,26.8703156 L150.101086,16.04977 L149.710749,15.1317107 C149.697159,15.1023007 149.673652,15.0786737 149.644392,15.0650141 C149.59418,15.0133409 149.521575,14.9903464 149.450961,15.0037529 C149.380346,15.0171594 149.321089,15.0651885 149.293089,15.1317107 L144.156256,26.8703156 C144.051125,27.1183099 143.997974,27.3854218 144.000059,27.6549817 L144.000059,141 L154.99991,141 L154.99991,27.658905 C155.002499,27.3880258 154.949337,27.1195234 154.843678,26.8703156 L154.843678,26.8703156 Z M154.910035,140.933303 L144.062575,140.933303 L144.062575,138.528302 L154.910035,138.528302 L154.910035,140.933303 Z" id="Shape" fill="#04C4CA"></path>
                    <path d="M153,27.7170316 L153,139 L146.000527,139 L146.000527,27.7012797 C145.995469,27.4358916 146.026818,27.1710313 146.093745,26.9136866 L149.364483,15.1312937 C149.364113,15.1068748 149.372738,15.0831314 149.388801,15.0643483 C149.457702,14.9580232 149.57929,14.9855889 149.61982,15.1312937 L149.879209,16.0527776 L152.890558,26.9136866 C152.963959,27.1754862 153.000766,27.4456927 153,27.7170316 Z" id="Path" fill="url(#linearGradient-11)"></path>
                    <path d="M146,141 L153,141 L153,149.079162 C153,150.142414 152.440649,151 151.763752,151 L147.220035,151 C146.539085,151 146.004053,150.142414 146.004053,149.079162 L146,141 Z" id="Path" fill="url(#linearGradient-12)"></path>
                    <path d="M155,27.7040492 C151.52879,29.4319836 147.47121,29.4319836 144,27.7040492 L147.239886,20.4776004 L149.695174,15 L151.810859,20.0792295 L155,27.7040492 Z" id="Path" fill="url(#linearGradient-13)"></path>
                    <path d="M152,20.328864 C150.437098,21.0456015 148.664427,21.1937791 147,20.7468142 L149.685739,15 L152,20.328864 Z" id="Path" fill="#04C4CA"></path>
                    <path d="M152,20.4204967 C150.384491,21.1987446 148.365105,21.0664425 147,20.7551433 L149.552504,15 L152,20.4204967 Z" id="Path" fill="url(#linearGradient-14)"></path>
                    <rect id="Rectangle" fill="#04C4CA" x="50" y="42" width="35" height="2" rx="1"></rect>
                    <rect id="Rectangle" fill="#04C4CA" x="50" y="46" width="35" height="2" rx="1"></rect>
                    <rect id="Rectangle" fill="#04C4CA" x="50" y="50" width="35" height="2" rx="1"></rect>
                    <rect id="Rectangle" fill="#04C4CA" x="61" y="53" width="24" height="2" rx="1"></rect>
                    <rect id="Rectangle" fill="#04C4CA" x="50" y="66" width="35" height="2" rx="1"></rect>
                    <rect id="Rectangle" fill="#04C4CA" x="50" y="70" width="35" height="2" rx="1"></rect>
                    <rect id="Rectangle" fill="#04C4CA" x="50" y="74" width="35" height="2" rx="1"></rect>
                    <rect id="Rectangle" fill="#04C4CA" x="62" y="78" width="24" height="2" rx="1"></rect>
                    <path d="M87.0325886,90.9996892 L54.2594463,90.9996892 C53.6329629,90.9824488 53.1091807,90.5613801 53.0137633,89.9982841 L53.0137633,89.9982841 C52.9656608,89.7457581 53.0450471,89.4869565 53.2299559,89.2934896 C53.4148648,89.1000228 53.6856882,88.9924063 53.9674894,89.0004175 L86.7367389,89.0004175 C87.3640626,89.0142694 87.8903948,89.4345795 87.9863147,89.9982841 L87.9863147,89.9982841 C88.0342367,90.2511282 87.9549128,90.5101823 87.7701715,90.7041593 C87.5854302,90.8981362 87.3147394,91.0065948 87.0325886,90.9996892 Z" id="Path" fill="#04C4CA"></path>
                    <path d="M87.0415423,94.9998699 L54.2703073,94.9998699 C53.6343403,94.9866486 53.1023666,94.5599088 53.0130191,93.9912958 L53.0130191,93.9912958 C52.9664058,93.7407328 53.046324,93.4844778 53.2308963,93.2926802 C53.4154687,93.1008826 53.6853606,92.9936337 53.9666897,93.0002927 L86.7379247,93.0002927 C87.3631191,93.0171157 87.886434,93.4334632 87.9835353,93.9912958 L87.9835353,93.9912958 C88.0362794,94.2426931 87.9608455,94.502169 87.7781491,94.6977786 C87.5954527,94.8933882 87.3249128,95.0043399 87.0415423,94.9998699 L87.0415423,94.9998699 Z" id="Path" fill="#04C4CA"></path>
                    <path d="M88.0218187,98.9993583 L55.2589727,98.9993583 C54.6339384,98.9824206 54.1107574,98.5632367 54.013681,98.0016036 L54.013681,98.0016036 C53.9657741,97.7487879 54.0450731,97.4897628 54.2297563,97.2958076 C54.4144396,97.1018524 54.6850453,96.9934059 54.9671074,97.0003108 L87.7416281,97.0003108 C88.3679147,97.0175492 88.8915323,97.4385707 88.9869198,98.0016036 L88.9869198,98.0016036 C89.0339877,98.2557607 88.9526301,98.5156736 88.7654248,98.7092129 C88.5782194,98.9027522 88.3050846,99.0093259 88.0218187,98.9993583 Z" id="Path" fill="#04C4CA"></path>
                    <path d="M88.1985978,102.999948 L66.1068852,102.999948 C65.5849334,102.986916 65.1473868,102.642104 65.065645,102.17939 L65.0102178,101.82417 C64.9727685,101.616982 65.0393468,101.405542 65.1920932,101.246566 C65.3448396,101.08759 65.5681185,100.997352 65.8020354,101.000059 L87.8977071,101.000059 C88.4209322,101.013393 88.8589236,101.36005 88.9389473,101.82417 L88.9904154,102.17939 C89.0265666,102.386024 88.9593933,102.596452 88.8068008,102.754583 C88.6542083,102.912714 88.4317042,103.002478 88.1985978,102.999948 Z" id="Path" fill="#04C4CA"></path>
                    <path d="M91.081209,115.999599 L58.3376781,115.999599 C57.6978032,115.975007 57.1580687,115.563346 57.0270035,114.999934 L57.0270035,114.999934 C56.9588037,114.756128 57.0214312,114.497688 57.1962657,114.301451 C57.3711002,114.105214 57.6380105,113.993775 57.9176399,114.000269 L90.6611709,114.000269 C91.3010457,114.024861 91.8407803,114.436523 91.9718455,114.999934 L91.9718455,114.999934 C92.0417584,115.243898 91.9797926,115.503206 91.8045875,115.69986 C91.6293823,115.896513 91.3613848,116.007561 91.081209,115.999599 L91.081209,115.999599 Z" id="Path" fill="#04C4CA"></path>
                    <path d="M91.0918907,118.999847 L58.3388693,118.999847 C57.6977884,118.974914 57.1576431,118.562197 57.0281261,117.998327 L57.0281261,117.998327 C56.958423,117.755371 57.0199322,117.49715 57.1942361,117.300982 C57.3685399,117.104814 57.6354035,116.993472 57.9149197,117.000296 L90.6601622,117.000296 C91.3006054,117.023621 91.8410962,117.435164 91.9709054,117.998327 L91.9709054,117.998327 C92.0416477,118.240558 91.9817458,118.498534 91.8090761,118.695268 C91.6364064,118.892002 91.3709367,119.004744 91.0918907,118.999847 L91.0918907,118.999847 Z" id="Path" fill="#04C4CA"></path>
                    <path d="M92.0829841,122.999747 L59.3341113,122.999747 C58.6941321,122.974978 58.1543094,122.560371 58.0232229,121.992928 L58.0232229,121.992928 C57.9606965,121.749386 58.0260035,121.493363 58.2001626,121.29927 C58.3743216,121.105177 58.6377952,120.994789 58.9140046,121.000189 L91.6667673,121.000189 C92.3073834,121.026574 92.8468655,121.442369 92.9776558,122.010529 L92.9776558,122.010529 C93.0389672,122.254175 92.972535,122.509792 92.7976474,122.703161 C92.6227598,122.89653 92.3590126,123.005985 92.0829841,122.999747 Z" id="Path" fill="#04C4CA"></path>
                    <path d="M93.2337251,126.999663 L71.1930378,126.999663 C70.6611597,126.974446 70.2135521,126.636663 70.0989033,126.173984 L70.0238543,125.822632 C69.9649727,125.621537 70.0165105,125.407518 70.1628282,125.245521 C70.3091459,125.083524 70.5329939,124.992646 70.7664438,125.000466 L92.8071311,125.000466 C93.3363444,125.026799 93.781534,125.36254 93.8973156,125.822632 L93.9763145,126.173984 C94.0349099,126.375412 93.9833876,126.589625 93.8372679,126.752094 C93.6911482,126.914563 93.4675117,127.006298 93.2337251,126.999663 L93.2337251,126.999663 Z" id="Path" fill="#04C4CA"></path>
                    <path d="M100.270955,58 L93.7290448,58 C91.1181565,57.9977897 89.0021498,55.8221596 89,53.1377034 L89,45.8622966 C89.0021498,43.1778404 91.1181565,41.0022103 93.7290448,41 L100.270955,41 C102.881844,41.0022103 104.99785,43.1778404 105,45.8622966 L105,53.1537373 C104.989273,55.8319298 102.875773,57.9978166 100.270955,58 Z M93.7290448,42.3228012 C91.8373105,42.3250102 90.3042927,43.9012244 90.3021442,45.8462627 L90.3021442,53.1377034 C90.3042927,55.0827417 91.8373105,56.6589558 93.7290448,56.6611648 L100.270955,56.6611648 C102.162057,56.6589528 103.693957,55.0820931 103.693957,53.1377034 L103.693957,45.8622966 C103.693957,43.9179069 102.162057,42.3410472 100.270955,42.3388352 L93.7290448,42.3228012 Z" id="Shape" fill="#04C4CA"></path>
                    <path d="M102.366305,83.0000001 L95.9555727,83.0000001 C93.4693137,83.002598 91.422109,80.9404085 91.3113362,78.3217646 L91.004786,71.1226222 C90.9472251,69.7855963 91.4108707,68.4819266 92.2880343,67.5144096 C93.165198,66.5468926 94.3795439,65.9997271 95.6490224,66.0000001 L102.067419,66.0000001 C104.545499,66.0105359 106.578443,68.0720348 106.684832,70.6822707 L106.995214,77.8773731 C107.052775,79.214399 106.589129,80.5180686 105.711966,81.4855857 C104.834802,82.4531027 103.620456,83.0002682 102.350978,83.0000001 L102.366305,83.0000001 Z M95.6375268,67.3533724 C94.7180326,67.3523677 93.8382127,67.7481742 93.20267,68.4487486 C92.5671273,69.149323 92.2312468,70.0936131 92.2731377,71.0620234 L92.5835198,78.2611657 C92.6615958,80.1570517 94.1441335,81.6505734 95.9440771,81.6466288 L102.366305,81.6466288 C103.285799,81.6476275 104.165619,81.2518211 104.801162,80.5512467 C105.436705,79.8506723 105.772585,78.9063822 105.730694,77.9379719 L105.420312,70.7428695 C105.340302,68.8456761 103.857193,67.3515 102.055923,67.3533724 L95.6375268,67.3533724 Z" id="Shape" fill="#04C4CA"></path>
                    <path d="M97.4262919,105 C94.8940853,105.001523 92.7868493,103.062459 92.5882043,100.548025 L92.0154837,93.4591754 C91.9097231,92.1417856 92.3490778,90.8385697 93.2316578,89.8517539 C94.1142379,88.8649381 95.3633679,88.2802534 96.6893646,88.233293 L103.397806,88.001918 C105.982835,87.9302993 108.178406,89.8726581 108.412115,92.4379342 L108.984836,99.5267839 C109.08943,100.843906 108.649668,102.146474 107.767328,103.133022 C106.884987,104.11957 105.63655,104.704583 104.310955,104.752666 L97.6025136,104.984041 L97.4262919,105 Z M103.574027,89.3343176 L103.445866,89.3343176 L96.7374251,89.5656935 C95.7773432,89.6007565 94.8732409,90.0246838 94.2343588,90.7393641 C93.5954766,91.4540443 93.277192,92.3975302 93.3531668,93.3514664 L93.9258875,100.440316 C94.0826035,102.304812 95.6769019,103.721043 97.5544531,103.663608 L104.262894,103.428244 C105.223025,103.39537 106.127848,102.972651 106.767086,102.258326 C107.406324,101.544001 107.724313,100.600273 107.647152,99.6464606 L107.074432,92.5576109 C106.932144,90.7373509 105.407035,89.3329779 103.574027,89.3343176 L103.574027,89.3343176 Z" id="Shape" fill="#04C4CA"></path>
                    <path d="M102.823586,129 C100.504776,129 98.5271161,127.261057 98.1514537,124.89153 L97.0612895,117.90834 C96.8435467,116.522034 97.2118676,115.105698 98.0724335,114.020102 C98.9329994,112.934505 100.202736,112.284445 101.558217,112.235506 L108.021333,112.001657 C110.392933,111.938472 112.44943,113.688531 112.849203,116.110128 L113.939367,123.093318 C114.155792,124.479402 113.78698,125.894988 112.926683,126.980246 C112.066385,128.065504 110.797453,128.715916 109.44244,128.766152 L102.97543,128.995968 L102.823586,129 Z M108.196538,113.348271 L108.075841,113.348271 L101.612725,113.582149 C100.632993,113.621046 99.7164221,114.093213 99.0954415,114.878916 C98.4744609,115.664619 98.2087149,116.688391 98.3655931,117.690619 L99.4596507,124.673809 C99.7527958,126.428702 101.244513,127.695398 102.96375,127.649325 L109.426866,127.415477 C110.408114,127.381266 111.327661,126.911314 111.950755,126.125594 C112.57385,125.339875 112.840191,124.314428 112.681785,123.311039 L111.591621,116.323817 C111.319886,114.602719 109.880601,113.341302 108.196538,113.348271 Z" id="Shape" fill="#04C4CA"></path>
                    <rect id="Rectangle" fill="#04C4CA" x="59" y="26" width="37" height="8" rx="4"></rect>
                    <rect id="Rectangle" fill="url(#linearGradient-15)" x="59" y="26" width="37" height="8" rx="4"></rect>
                    <path d="M97.4005231,55 L91.5835151,49.3006292 C91.0802635,48.8065437 90.8837213,48.0863984 91.0679242,47.411465 C91.2521271,46.7365316 91.7890903,46.2093486 92.4765448,46.0285008 C93.1639994,45.8476529 93.8975047,46.0406153 94.4007564,46.5347008 L97.1783182,49.2616725 L106.499022,38.6771268 C107.218909,37.8595488 108.477566,37.769725 109.310311,38.4764997 C110.143057,39.1832743 110.234547,40.4190064 109.514661,41.2365844 L97.4005231,55 Z" id="Path" fill="#AA9120"></path>
                    <path d="M100.396555,79 L94.5835151,73.2954524 C94.0802635,72.8015932 93.8837213,72.0817778 94.0679242,71.4071536 C94.2521271,70.7325294 94.7890903,70.205588 95.4765448,70.024823 C96.1639994,69.8440579 96.8975047,70.0369319 97.4007564,70.5307911 L100.178318,73.2565135 L109.499022,62.6768167 C110.218909,61.8596131 111.477566,61.7698304 112.310311,62.4762814 C113.143057,63.1827323 113.234547,64.4178983 112.51466,65.2351018 L100.396555,79 Z" id="Path" fill="#04C4CA"></path>
                    <path d="M102.402105,102 L96.5836181,96.287432 C95.8054606,95.5244808 95.8054606,94.2874926 96.5836181,93.5245415 C97.3617755,92.7615903 98.6234179,92.7615903 99.4015754,93.5245415 L102.179843,96.248518 L111.502916,85.6755975 C111.96801,85.1479932 112.684859,84.903743 113.383431,85.0348534 C114.082004,85.1659639 114.656171,85.6525163 114.889649,86.311231 C115.123128,86.9699458 114.980446,87.7007484 114.515352,88.2283527 L102.402105,102 Z" id="Path" fill="#04C4CA"></path>
                    <path d="M107.394259,125 L101.58199,119.290255 C100.805229,118.526641 100.806117,117.289449 101.583974,116.52691 C102.36183,115.764371 103.622097,115.765243 104.398858,116.528857 L107.176051,119.255202 L116.499486,108.676984 C116.96511,108.148226 117.682714,107.903491 118.381985,108.03497 C119.081255,108.16645 119.655956,108.654167 119.889604,109.314405 C120.123251,109.974643 119.980348,110.707095 119.514725,111.235854 L107.394259,125 Z" id="Path" fill="#04C4CA"></path>
                    <rect id="Rectangle" fill="#04C4CA" x="144" y="139" width="11" height="2"></rect>
                    <rect id="Rectangle" fill="url(#linearGradient-16)" x="144" y="139" width="11" height="2"></rect>
                    <path d="M155,141 L155,149.066291 C155.001079,149.582832 154.795166,150.078244 154.42834,150.441655 C154.061514,150.805065 153.564403,151.006132 153.048258,150.999857 L145.932224,150.999857 C145.41945,151.000897 144.927378,150.797517 144.564791,150.434677 C144.202204,150.071837 143.998965,149.579423 144,149.066291 L144,141 L155,141 Z" id="Path" fill="#04C4CA"></path>
                    <path d="M155,141 L155,149.066291 C155.001079,149.582832 154.795166,150.078244 154.42834,150.441655 C154.061514,150.805065 153.564403,151.006132 153.048258,150.999857 L145.932224,150.999857 C145.41945,151.000897 144.927378,150.797517 144.564791,150.434677 C144.202204,150.071837 143.998965,149.579423 144,149.066291 L144,141 L155,141 Z" id="Path" fill="url(#linearGradient-17)"></path>
                </g>
            </g>
        </g>
    </g>
</svg>